<mxfile host="Electron" agent="Mozilla/5.0 (Windows NT 10.0; Win64; x64) AppleWebKit/537.36 (KHTML, like Gecko) draw.io/26.0.16 Chrome/132.0.6834.196 Electron/34.2.0 Safari/537.36" version="26.0.16">
  <diagram name="1 oldal" id="iu1qczglu3n4pp8B12Ii">
    <mxGraphModel dx="627" dy="496" grid="1" gridSize="10" guides="1" tooltips="1" connect="1" arrows="1" fold="1" page="1" pageScale="1" pageWidth="827" pageHeight="1169" math="0" shadow="0">
      <root>
        <mxCell id="0" />
        <mxCell id="1" parent="0" />
        <mxCell id="gpXHtfz_gADmp17LL22E-1" value="" style="ellipse;whiteSpace=wrap;html=1;aspect=fixed;strokeWidth=3;" vertex="1" parent="1">
          <mxGeometry x="290" y="260" width="80" height="80" as="geometry" />
        </mxCell>
        <mxCell id="gpXHtfz_gADmp17LL22E-2" value="" style="ellipse;whiteSpace=wrap;html=1;aspect=fixed;strokeWidth=3;" vertex="1" parent="1">
          <mxGeometry x="170" y="420" width="80" height="80" as="geometry" />
        </mxCell>
        <mxCell id="gpXHtfz_gADmp17LL22E-3" value="" style="ellipse;whiteSpace=wrap;html=1;aspect=fixed;strokeWidth=3;" vertex="1" parent="1">
          <mxGeometry x="490" y="260" width="80" height="80" as="geometry" />
        </mxCell>
        <mxCell id="gpXHtfz_gADmp17LL22E-4" value="" style="ellipse;whiteSpace=wrap;html=1;aspect=fixed;strokeWidth=3;" vertex="1" parent="1">
          <mxGeometry x="490" y="60" width="80" height="80" as="geometry" />
        </mxCell>
        <mxCell id="gpXHtfz_gADmp17LL22E-5" value="" style="ellipse;whiteSpace=wrap;html=1;aspect=fixed;strokeWidth=3;" vertex="1" parent="1">
          <mxGeometry x="690" y="60" width="80" height="80" as="geometry" />
        </mxCell>
        <mxCell id="gpXHtfz_gADmp17LL22E-6" value="" style="shape=image;verticalLabelPosition=bottom;labelBackgroundColor=default;verticalAlign=top;aspect=fixed;imageAspect=0;image=data:image/png,iVBORw0KGgoAAAANSUhEUgAAASwAAAEICAYAAADlQMlVAAAAAXNSR0IArs4c6QAAAARnQU1BAACxjwv8YQUAAAAJcEhZcwAADsMAAA7DAcdvqGQAAD9MSURBVHhe7b15vBxHlef7i8jMqlt3k642S7JkMwaMPI3ZGtz4YRjoMe/TgHmY1/1Y3J+B+bz59AxDPx7GzYyZh6EB94BZbBo+NGa3wZh2g92NjcFuL+PdgLziXYslWYtlLXetNZeI8/44EVl5S/dq810qs+KrT6nqZmZl5RLxyxMnTpwQRERwOByOHCA7FzgcDke34gTL4XDkBidYDocjNzjBcjgcucEJlsPhyA1OsBwOR25wguVwOHKDEyyHw5EbnGA5HI7c4ATL4XDkBidYDocjNzjBcjgcucEJlsPhyA1OsBwOR25wguVwOHKDEyyHw5EbnGA5HI7c4ASrx9Bag4gwW6LZzuUzbdv5t2WmbReKxfpdx8IiXIrk3sDeZiHEIcuJaNpyIcS05UIIaK0h5cI936ywCiHS3z3SMdjvAICU8pBzdeQfJ1g9QlaUOm/5TMtnrexk/5tlPahj9WzbZbC/azftOJ7ssXQeIxGlQmb/zp7PrOfhyCVOsApO1iqxFXgmIbDrLZ0iQUSQBNRqNYyNjmFsfAzj4+OoTk2hVq+j1WohDEM0Gw20WiHiOILSGlJIQAACAkKytSSFQH//AMp9ZfT392NgYACDg4MYGhrC4NAQlo6MYMWK5ejvH4AQmd+XHoCMRTjD8XeKVOc5OvKNE6yCkxUp0hrS8zo3SdFKg0hDKYVdu3dj27Zt2LFjB7Zv24bde/bguWe3IQxDRFEMmP0mKoFSGlorKKWgEgViMwxCSCOCbYGUQkJIPh4WUm5yep6HUhBAeBJCSgRBgKGhQaxZsxannvpynHTSSXjZy16O9evXY/XqE+AHJZDWEFKCiN8dxccJVlE40l0kzS01IaGSxAhPhHq9jtHRUWzduhUPP/wwntn0DDZv2oRGowmlFDxPQhMhCiP0lcvcfCMYURIACALG2jFFKdsiFFKk21sLiDTB841wpvsCAMGfBR+n1gpaawgh4XkeoihCpVLBsmXL8JKXvASvfvWrcdppp2HDhg0YXjKMSqWCvnIfKpU+QAiQppmFzBlducUJVpfT2cTJkq477B3klWGrhX379mHHjuewZw9bT1u3bsWWLVuxf/8+xFGcNrHazca2pSSFgEoSeIItIGuxcdOMtYq/3ul/ai/LQqTNJ7aweBkZwTp0e5jjUkqBiOB7PoTkzgA/CLB27Vps2LABL33pS3HyySfj5JNPxrp167By5UqUymWzh4yUstYe+jn7+1nldXQFTrC6FLYs2gKSXQ7TC5ZdJtOKaCq/1oiiCA888AAef+wxPPnkk9i7dy8OHDiA/QcOIAxDyFmEYTYEGz/zCuHYRUITGWvQg5ACvh9g9erVWL16NdauXYtXvep0nPGGM/DSl70MfZUKfylb7IVRLM1iRaTZakyv8ewi6lhYnGB1IZ1WFWUrpFmulAIAeJ43zcJKwggPP/Iwbrj+etx6660IowhxHCNJEkRhiCRRKJVLkEJCp1bO0SEWqqQcozb4fsDNR6L0vFSSGOtPwPc8VCr9OGH1CXjrW9+Kc845B6969atZhNqm4XQy1xw2rMOboXnpWFCcYHUhtqJkRcnepsRURN/3QUSo1+sYHxvDjme349ZbbsFtt92GPc/vgZQS5XIf99YpBSEkfN9jF5S1IGaop4vOcZTGtrC0LVMhBIT1iRFbYUS8TkqJE9evxzvf+U689a3/DieffDKWLVuGUlACTNNXGmuN27uaRW0mYXMsKE6wupC2/8c070ysERHB930opbBz50488cQTeOCBB/DIQw/j2S1bEEVRO4yBgEQlCILAfBeQMgcV7jianUIKaAK0VhAQ8HwWeCteRJSev4BAohWklEiUQqXShw0bTsOZZ74Rr33ta/GqV70KK1ashB/40CrT/M7DtesBnGB1KbayJUkC3/ehtYbWGhs3bsSNN96Ixx9/HLt27cLU1BRI6XSMVduyMI5tAjzfgxQSSitopSFk29F9LCxEQTkeP5kmMjFeHoTg8AyttekMYLHyJMeDAYAQEmEUwg8CswduSo6MjOBk0/v4zne+A6effjqCoASAIA4TDuJYOJxgdSFaaRDI+KcIURThpptuwuWXX45t27YjSWIopQGzDSkN3/NSKwwZ4YKx0AiU9vZZ39WxitZCFBRxHL4y6UnEcQJCO7iUERAC8KSHOIl5W+mxJSYlXy8AvuchNk1t0hr9A/2QQuKP/uiP8F8/+lG87U//1O7Oscg4wZpntA3czEZo86M/7amSNkyAOKZJAGjU69i1axfuuusu/OLnP8f27duBWUSjcPVoppM8HHN4AbQmeJ5EknBzOkkUTjttAz7wwQ/irDefhbVrT0S5rzztR7XiJqZ9KPAJdKmPMOc4wZpnNLXbOALGurH+JOKmn3Wqa6XRbDTwu9/+FvfefQ/uuusu7Nq9K7UU3K2af5TSKJUCJHEC6UloTUiSGP0DA3jJS16Cs978ZrztbW/Fa1/7OlQqlbSnUWsF6XkcrCrQFqxjtGIdh8cJ1jxjQiH5s4nzkYIfwmSGp6hEIVEJ7r7zLvzjz36GZ55+GqOjo2g1WwhKAUjzXuy4PMf8wT4+mT4ghODPmgiJUiiXy1i5ciVe//rX47zzzsMZb3gD30ffSy3n1JIWzsqaa5xgLQBZv9JMy5556il8+tMX4cEHH0QQBCCl0Wo1sWTJEiRJApUoeL4HpbR7YM8zUkrEcZw+HLTmEJBEK1T6+6GUQhi2UApKEFLijDPOwFe+8hWsW78eKonh+QFAmjtLgsBZWHOME6wFhIgQxzEEgFarhUcffRT/dM0/4eabbzLj3gSSRMEzsUKkyRR8H4CJwHYVYH4hM/7RxHdJKeF7PmKVIFEJPOnBDwIkSQyAB20DwAc+8AGce+57cNppp6FS6ef75EIh5hwnWPOMbR7YITVxFGHjxo341fU34K6778a+fS/A8zxoTe0ePA0Egc/i5cm0RzA7HMcxP9j7ZQNrOZyEID3OMmHHMkrpgUjzuwmhWLt2Lc4+++1497vfjdNPPx2lPjuG0TFXOMGaI2zcFDJNP9uc0FrBkx42b9mMH/3wR7j99tswOTnJkexke8XMbRA2GKHd2QSbE889sOcdGx2f+qFMNgnu6QX37JpIejv4m8y9JiJU+vqwes0anPOuc/Dh//hhjCxfBs/zeefGwg7KJdNDzDfUpsfRih33jtlxgjWH2EtpmxJJwk0I0ho/u/pq/MO3/wH79+2HHwSIoyhtTjgdyjdJotDX14ckSQBrpQFY/5KT8fnPfx5vetOboLWG73sQsi1IOkkAAUjPN7m93PCfI+EEa47IDgOxFtbk5CQeefhhXHnFFbj33vtSQZOZp7Mj/0gh2b/leUhi9jmSJmhwz+K5556LD3/4wzj99FeiVC4jiXlbi02sSEQQboD1YXGCNUdoM4bPNg22bt2Kq6++Gr/+1Y2YmpxMfVgANw2k4EBDdAxFSW+G07LcwJlV+QGkFQ+UFgJIlEJQCiCExLp163DOOefgvPPOw+o1awAjVACx1WVz09vEho4ZcYI1R8QxD/3wfR/XXHMNLr/8crzwwgvwhEStVkNgn6gElPvKaDQaCPxgRl0iOMHKE1oTSqUAYSuEH/jmYQTESQw/CFCr1dDfX0EQlHDqqS/Hxz9+Pt72trdBetwTnGZFJXI9i0fACdYcobXG7t278aUvfQk33ngjSqUSkiRBEkYYHBhInbdE3FMYlAJOGDcDTrDyRRiGCIIS56SXAvV6HZ7nQXoelObI+VYrNOl9CH19FXz4Qx/CX/3n/4zh4WEEpRLHcHm+E6wj4ATrCNiLk/VNdRapRr2BW2+5Bd///vfx9NNPQ5i8VdKT8KWPJIlN6IJNERNwzqUZfFiuSZg/bCYM7jnkNr4nPSSa85mRGdHA997nsiEl3vjGN+JjH/sYXvOa16BU4kBUdrpPTyqYLXvIlpEeLCZOsGbBXhYChynYQcwA9wBpxT6rbc9uwxU/+hFu+vVvMDk5Aa01At+HSrgAwwx8djgsZJMoCoETTjgBH/zgB3Heeedh+apVgPWHeuwPTR+S5n2mktRLouUEawbIpMf1fR+a2CqS0oNWPIuLzfb529/+Fl+55Mt4+qmnELZCBIHPBUubuB0yUtVLJcpxFAj4vodWs4XBoUFopfHGM8/EJZd8CatOOAEQAtrGfqXTobXprLC9VLycYB0GSifw5AJjo5zjOMb111+Pr331axgdPQhSGuVSCUTgXOImx1KSJCDBE4g6HCnGn8nzObKPSwiBlStX4u+/8Q285nWvNQ9Lznc2U/hLrzYLnWDNgA1RsLnCrc+BiLBjxw5ceeWVuOqqq+BLD0olEOCJDpIkAYjjrARgmoM9VqIcR8RWuVKphFarlVrsRITKwAA++tGP4s///M9xwuoToEw4TDZuy2Irbi8VLydYM0B2/J8dOmOmWv/t736Hy7/9bWx8YCOajWaaL12YuCoIdsCCeNCynRjBXWDHdDhwWJNGKSghjmP4ATvjNRGGhofw9rf/77jwUxdi5cqV7IP35IyWVq/hBGsGbOYEVhpWrP91++34zGc+g+f37EGpVEIUx9zrY9IYwzYhzSBmATMZqXQ5kRzTseVESJ5Nsj07Nfs8tebg01e84hX42te+ij965SvdkB2DE6zM1FnWyWnH/wFAvV7HP193Hb7whS9kBOwImE2E/ejKmuMooXR4FwvbypUrcckll+CsN78ZQsrUp2XdFnEcI0gn0yg+PS1Y1m9gxYqndbJOdoF9e/fi+9//Pq655hq0mq1jy0dlhtw4wXIcCzZ8RmkFKT2USiWMjCzFR//6r/GBD3yQ09yY8gq0wx16BSdYmXxVdlCylB5GDx7E5z/3Odx2220IwzC1vnqtgDgWFq1timaBKI5N9LzE0NAQ3ve+9+HjH/84+ip9EKYTCD0mWj0tWMoE5tmI8zhi83rP7l34q7/6K+x6bifiKAaIePhFqZQ2FWfCWVOOFw9nltVao39wAKOjo6hU+lEul1Gv1/H+978fF1/8BVT6+xHHCQ/x6iF6XrC01vDME00rjScefwyf/cxn8cQTTyCOIkgh0Vcq88SbnndE5ycdfrXDcVjIDN/RWnNYje+3y6nxX73nPe/Bf//v/y0NMnUWVo+g0U7vopTCxt9vxKVf+xr+8OijSOIYpaBkenTM1Fxe2wyfDSdYjheDNgPipRSc3FSyK0IphXJfH6IwRKlUwrvOOQd/88lPYvWa1TPGaBWVnhGsJEngmQA9YQI7yUzbDk144skncf7HP84Tlpp5A4lY0I7Jd3WUmzkcM8NNQjsUTJgJWkEcBqGUgoCA53s444wzcOlll2L12rXtrxu/bFEtr55IbxjHnC0hi3VuggQe3PgAPvj+92Pbs9uMP8vcdLAAcepaI0ZHejkcLwo7htA8TM1ge8AO+xLwPInAD3DH/7oD53/8fOzcsQMgoDo5BUCYuRSLWRgLL1jWJ8BPJr7pKklAREjCEPfdczcuvPBCVKtVBIFvQhscju7D83yOz9KEZrOBJUuGsXHjRlz8hYuxY/t2DA0PAaTZhTFLrrW8U3jBsuEIdgCz7/vwPA8qSfDAAw/gkksuwY4dO1CpVNBqtdLvOBzdBBHBMylnyIwtbLVCCAB33XUXvvzlS7DvhRcAITN5tYpHT/iwrA8qjmJ4Jmf2U08+hQvOPx/bt21DHMfo6+uD1gSleOYTJ1qOboMzO5QQtkJIyfMkCikRRRGCUglnnnkmvv71r2PFypUAaaCA81gWXrDIJPf3pJf6prZv3473nvteNGo1aDO7cqkUpA5NHttV6MviyBmloITJqSn0lcvwTNiDEOBJdgU/YMMwxLvOOQeXXXYZBgYG2Moq2HO3UBLcqb3ZHkGA2/5bNm/G31xwARq1GpTS8DyJUqkEpTiIlLuRnR/L0V20whb6+yvwfJtIktMvSzOAOkkSDAwM4M477sBll16KarXKX9RmFl5DZx3JG4USLGQsKrLduzb1C4Dnn38eX//63+OJx59IQxd4Ww0pe3d8lqP7sfnYOJND+2/uRRQoByW0mk1opXDtL67FlVdewQ54+/AltEMeckxhBItNZBYdIQSSOOYUL1a8lMJXv/IV3HnHHdBKQZknlMORd3g2Js4yIqVEo9nA9777Pfzkxz+BEAIqSVixTHJJmw4pjxTKh0Uws+gaZ6Pt3lVa4zMXXYRrf/4LEBGUViiXSkiUEy1HvuHay73gAjxgWkoBz/MQK4UrrrgCb3nLW7izSRM74nPcgCiMhcUWbzsBGpkhNWEU4Sc/+TGu/+UvobWCFGw+R2Hk/OqO3CNMc1GZVkMQ+DzVmAl9+OL//J945JFHOHuulCClcm1hFUawACBRCTwp+QYmCYiAO++8Az/43g+grDVlJpHopaRnjgLDwfCQwsRoEWfL1VoDRNi2fTu++c1vYu/evQBpCC/fVT7fR9+B5/HMumQCRXfs2IFv/P03sH//Pmg7sYTW8D0PccLxVg5HvhFIlIImjcAPQGZkh+0dJ6Xw2/vvx6VfuxSAAClOv5xXCiNYmjQ/ZYxgxXGMCy+8EFu2bAFsc5HYfNZE8AoYVOfoRTgCnss1dzzpzEw77IyXuPbaa/G973yX3SCae8+jKAKMC8V+h/d46KtbKEytlcJMyyUlGo0GvnDxxXj00UfbTUGHo8eIIx70H4URAj/At//hH3DzzTdxL3mSwPd8wITx2I4qdPkY/sIIlgD7p5IkwXXXXYd/vu6fAeOQdDh6Ec/32BXiefCkxFS1issvvxybNm2CECZtjWl9ZN/RxaJVmNqcJAl838dDDz2En/z4x2g2G2g2m52bORw9A8chErTmGcujKMTmTZvxve99D/V6LU0NLiU77DsDprtRtAojWL7vY2x0FN/9znewffsOSCHQ31/JdReuw/FiiOII/f393HMoBAYHhxDFMX71q1/hX/7ll2lgNQBEYdj5daALRaswgqUThSuvuBL33nMPSGsIIZFE8SFPDYejV/D9ALV6HZ7nQZNGHEfwjDV12WWX4cEHHuCYLa3R11eZdYKVbqpBuRMsMvmtbXvbxp7cesstuPqnP0USJxAAfDO3YHvos/n+tL8cjuJCRBxISkhlx/qtpqam8IWLL8aePbvTYK72DNTdS/cfYQdpcJwQSJIEUkps27YN3/zmN7Fn9550bkEik1o2a2EJfjnRcvQCtujze3teAhuTuGXLFlxxxZUmcWU+KkbuBEua6bq1mfZobGwMV111FTZt3oylS5bA8zz4np86EmcLa8g8dByOniLwfSRxjFaziZtuugn33XdfuznYbYFXHeROsJDpftVa44EHHsBvfvMbY1VpRGEIIkJiht940jw5sjfBWFoORy+ilILvcarwAwcO4GdXX42xsTHOUmrpUtHKnWBlxarRaOCHP/whDh48yBdYE8qlMgQArXiCVFLaaZPDkUFKD1EUApoTBNx9z9249tprD32Kd6Fo5U6wpBnc7Ps+rrzySvz+979PY0iUUoijCCpRCAIeV9WF19zhWFSE4DAg6XFKGlIal156KZ566snOTbuOrhSsbAtOd0Thaq1BmvDoI4/g29/+NvcCEn+DhIDwPPgB57wOowi+z8MPHA4Hww94iSiOARASxWmXLrnkEjTqdd7IGltdlqW0OwWLCASCMsn2yFw0pRQkgKnJSXz9sq9DxQk8IeCZ07ATnmoQSAB+4EOR5unjXbvQ4QDAYweF4MHRGoD0PERxjEcf/QOuv/6XiOOoXQdNj3u30JWCxakxBLRm5yBMU5BFS+Pmm2/GQw89xNlFhWTrqosuqsORR2q1Kn7xi2uxa+eu9PnueZx2uVvoniPJQEScAsbzU+sKRrSef/55XHfddYijCAJAksSFnprb4ZhPsrVGCIknnngc//qv/wqtNATYL9xNxkBXCpYQAgQb+MlCFccxQMDtt9+OJ554HK0wTNNiuGm5HI5jp/MRT0SIohjXXHMN9u7diySO4Hk88XC30JWCBZgJJMDed601At/HC3v34qc/vQrNRhOB77NPS0puFnbPQ8DhyBXWxSsA+J6H7du341vf+hZ834dOFOeD7xK6U7DMlEXCfBZCgAj40Y9+xJkYzAwhRDx1UTZbosPhOHqyYgXiHkPP83D99dfjwQcf5Bl4ZPdYWV0pWCxQbDJZ39QzTz+Nq666Kl1OJh0sEaV5fRwOx4tACMhMiuVvfOObh7RcssPdFsNQ6ErBIpOHWikFrXm4zY+u+BHiOJ7e7qZD2+EOh+MIZAMdMwjjeJdCII4iPPP007j55psB8IzT1gVjc8U7wTIIo/KeSe36yMMP47577zPhDtZ8dWLlcBwP2TqUhcxcnr7nIYkTTE1N4dbbbsPY2Hg6woRDixSE4MlaF7oHsSsFC0a0lFKo1xu49dZbzeDMhb04DkeR6RQt7nUX0ErD93lC1nvuvhtbt25FEsfpNtZNk/28UHS1YEkpsXv3Ltx5512IonDWVDEOh+P46BQtGEtLJQmSJMbo6Ch++ctfpsJkm4W6Y2qwhaJrBStJEggI3PirG7Fjx3YQAZ4bF+hwzDmpaBFAmiA9nlFHSo5yv/nmm7Ft2zYex2t8V4thXaEbBCsbyZ79LCFQr1bxy3/5F0gIkFLwOrKHWt+hayg6HEdPtt5Mqz+i3SvPQ+LY0pqcmMAPfvADCDNUJ908Ux879zdfdXLRBSuLVW1SGlIIXP3Tn+KFvXtN4GiAJOloElrvYepFdDgcR6Sz3mTrj3m3iZk45hG46de/wdYtW0EmLtL6mBeaRRWszlgra2EJKVGd4kkfheC51SDa2zscjoVlcnIS//Tzf5pmVU2zttJP88uiCla2HZxtDoI0fv3rGzE1NQWlFDzfQxzFKJVK03fgcDgWhFKphHvuuQc7n3sOKkmAjMFhWQjRWlTBsqR+K8lZF8bHx3HTTTelWUOFEBBSzjpvmsPhmF8SleD5Pc/j3nvuPWz81XyLVlcIVhYiwh/+8Bg2bdrMwaPS47gQk2TM4XAsPJ7nodGo47777sPExASP8Z3BysI8u5S7TrBarRYeeughHNi/HyBwxkPY/Fhdd7gOR08Qm1nUH3nkETy3fQeEkCDdnutwoVhUBegMPNNa48CBA7jvvnshpIAmDSnZzyUyXa4Oh2NhkaYZuG/fPtx3//2A7SybwcKaTxZVsITJtmDfiQjPPPMMnnnmmc5NHQ7HIhJ4HrSxqH51ww2ZfHU9KFg2nsPzPNx4440Iw7BzU4fDsYhEUQxPSAgBbN26FQ8++CC42WOSZy6Qbi2qYGmt055BAKhWq7j99tsX7OQdDsfRIdOgbm4J/fCHP5w+UzTmOcTdsKiCZYXKzspxww03oNlspnMROhyO7sDzPdMS4rGEG3//e+zevadzs3ln0QUrSZK0WXjNP16T5tpxOBzdAw945s9SCDSbTdx5552dm807CyJY1lLstJs4WZgPAYEtmzZj6+bNKPuBCxB1OLoQnmdBQHoeGo0G7rn77jRPFtOu5TPFZ80FCyJYs5KeE+G+e+8FiBC1QnhdNHGjw+HguipkuzdfehK79+zGs88+C9IKPKV9u0rPVytpUZVBSD6pRr2Ohx9+GEmcmGXzc7IOh+P4SG0Lk4RACIk9e57HE088ASEkYJzyIjOJxXywqIIFCKgkwY4dz2HHjh1IkgSe50HrhU9b4XA4ZkearCk2rzsRoVGv4+mnn0IYtjgeqyP7ynywyILFKVc3bdqE3bt2ISiV0kBSh8PRPQjJlpOtm0ScMevpp5/G2Ni4icmy1tf81d9FFyytNbZs2YJGs5kanjw3jsPh6Bqo3RwEwLNCa41NmzZj//79ZqO2j2u+kvstumDV6zVuB5s87iCk2Q4dDkd3QKD2bOvGniDSGB0dxTPPPA105HqfLytrkQWLMDExgc2bN4NMACmBIMUiH5bD4TgUo0EC1rHOC+6//7fcJJxn/xUWX7CAnTt3pialFSpnYTkc+eF3v/sdtFKQptcfmdErc8387PVoIeD++++HECaSVvJchPMVdOZwOOYWKSX27duHTZs2pfV2Puvv4gqWELjrzrsgBE+DrZTiADXXJHQ4cgFpzll35513Fl+wxsZGsXPXLsCkllGKJ2qkzlHgDoejKyHTY3jHHXek0aXz6cdaVMF66MGHEEcRtFJm0DPgBz60nj+FdhioQC/HgmPHo0ghEEUxnnrySYRhCD1P4QyWhREsk7BemEBRGxX7+9//HgDgSc4P7UlOYeFyt88/9n4U4eVEa/7JPhsEAEGAJEAQQZiVTz/1FKT08m9hZaNj+TPPM//II48gjjm5vchEyToLy+HIB0Qc0aCSBFs2b+5cPecsiGDZ6FchbC+gxvj4GHbs2AHP90Ga1ycmF5acR4V2MO6R4JgrBAQSpfD0AszFsGCCNR2BnTt3Io5jBL4PpRWEyRdtp6V3zD+drqC8vlx5WTykECZDMGHP7t0IW615zWe3IIJl87bbtBNCCDz77LNQSqURs1JK+L6PRPE02I55ptMRlOeXY/EQ4McGAaNjYzhw4MC83pQFESzbJLTRr0SE7dt3IEnidCIKrVUmaHT+TtjhcMwdRDzGEAKYmpzE/v378+9070QphT179iBJbP52PmnuIfStoe84SojAHRUdl43MgNRsQF/aPKf23/YhwVkyOO9R9nvZ73Y27zv/tsy0LYib/FrraS/rw7Tfs7/Nr+m7sKTbdZw3n8XM52C3cGNV5xIBZVpOtVqdh9llsjrMNQty57KKq7VGrVbDxMQ417R0I7tte5Hj6BDCjN0S3PtKRowAZLqZ2yPoiQhCCs7RLbi5TqShtILWygyRMusy1m6naLU7Ufi+ZtdJISGFhFYaSrEwAYD0uOlvX57nscsAfOxSSPieD096Zh/m92cQJSkkp+0F/67WBE2aB9B7Hnzfnzamjc9l/lKf9CJcBtjdMzk1iampKYDmL3h0QQQLGdESQmBiYgITE5OdBoHjRUCkzWu6mICILRgrGEagtGaBItKp51pKHiLFlgvvT2f2OU30jAWjlAbAPcBCWCsNLCIgeL4Hz2NB0qSNgCkkSYIkSVI/JhFvr41wKq14e9Lpc80KsbYjITIzpduKI8BhMVoraCOU2lhw6aD6+alLPQmlrh6BsBXi4MGD8+qHXjDBgn2yC4FGs4Fms9m52nGcsHVxaPPHLtemsmYrLWVeOhUKuy0AKQAh0m0gBOfbF2a5QLpfTfxSWpt98T4IaO9TAEJKEBtS01+CX3bf2d8lgI/NWE7Tj9laVLxQGEG1k35a0faNFUfmy26s6txBWht7l7OSjo+PIYl56r75YMHvHBE/7W0TwfHikUKiVCrD9wNIj5uAtpnmBz5KQcDTqRnLyl57ISWk50F6/O75PjzfT5cJKVkcNItZolQqQEKKdHvP9/l3yiWU+/rQPzCAwaFBDA0PY+nIUixZuhRDw8Oo9FcQlAIIKRGUSgiCAH7Af8N0j1sLi4jDW/h37LF5EJKPK3uMnucBABKVIFFcWYRgiy5JeBmfM0c5ZpuJjheJYIe7vWdxnIConUp5rhE0X1LYgS1ERIRntz6LT15wAR57/HHj5nW8KIitHSF47jjf940g+CACgsBH4Adc+T0PQRDA830EpQCDg4MYHhrG0PAwBgcH0d/fj6GhIfT3V9DfP4DBwQH09w+gr68PS5YMw/d43+VyCaVSmfcdlFJ/kbBW0hFQSQylNOI4QhhGiKMIcRIjiiI0my2EYYh6vY56vY5ms4k4jjExMY5Go4larZa+Go0GpiYmEIYhoiiGNk3MOI7TShRFMZRKoDUhiWPEcdxuVjqOCisS6Z014ZJsubdX/PXHPob/5//9GEqlkt1yTlkQwSJM78kZPTiKT5x/Pu6/7z7u0SHiADQzu6wQnHn0xWD3Sxn/ChmnMP8toRU7mGEEFcYXkpJJ12yXkxmKMG0d2gn4p2/Lf892Jtbfg/QamZ1P+z7B93y2XPr7UalUMDDQj/7+fvT3D2BgoB995T5ePjiAgYFBDA0NYmhwCH2VCpYsGUa53IeBgQFU+isYGhpCpVJBf38//CDIHE2G7AGbcz3kLOx1ypbkQ0r1PNJxOFprhK0WWq0WGo0G6rUams0m6o066rU6avU66rUaqrUqGo0mqtUqWq0mGo0mms0mmo0Gmq0mGnV+r9VYKKMoMqm7uYymp9hxjzsRh5Qp3j69bJ3lbYbyNA1ThaYVTxtj3eHLS78wh5CZl5CLKT8cBUzvtBCptfu3n/0sPnjeeZA+W71zzYIIlgYPfrYnq5TCJV/8En529dWIowikCUol6Cv3IY5iCE8eesOOCN81K45CWgexbQYpbmsbgdJaw5Ne5mbzXGtSCi6gJuWNFTqldFpCsoXMWhS2gLaF1hyP4FImTBR/+2Jzr1YpCFDpr2BkZAQrV6zE0pERjCxbhiVLl2D58uUYGRnB4OAgC06lgnK5jL6+PpTL5WmvUqmEUqkEYYTfNnvS5l/WH2XCSOwlnibS9jxSYT/0Rth19rMlu+1sxWqm73Wumw17LtkmHV/zdmXOnpddb/fLD8T2wysMQ2OZReln+2o2mwjDEI1GA5OTk5icmMTY6CgmJiYwOnoQBw+OYmxsDNVqlXvGDLx/LiqSS0XmXPlvmN5brVX7AZhZl14j3X7g2u/zZ96n7V1V5kFPhDQ1k7V2yfSewjTjj3SND4cUkpvtJgeWJY5jBOUy1q9fh4sv/jucddZZfNzz0PReMMECmbnNTKDZAxs34j9++MOo1Wror1RApkdHCIEoiuAFfuduDoutpALczW0Lt0VKabrx2beRvbnmmQalufeqr68PRIQ4jkHEWSQ888Sw+7WV2qKVhuezc5e7zQV8z4MGYXBoCCeeeCLWr1+P9evX4cQT1+GEE1Zh/fr1WLZsOZYMD8PzPK54RPBLAYTg5putnEJwnJq9RrZHr5NspbRwodWQnockieF5/iHjNe252IowE0pxcO+LKfTzBZkqP23ZDMJqK3Hn9bHLsveUHfU23ksbi4I7N7TpeSUiTFWncODAQezZsxu7d+/B7t27sX/fPuzcuRMHDxzA2NgYwlYIIQV83wcRTXsoetJj313CPkLP47JqT8geqy17thwrzWmZfM9nCwe8TCsT2pEpO8L04NI0AT16hGDrSpteZX7wt1sxRIQ3nnkmvvud72B46VLzpc69vHgWRrBIA+DeGzKCFYUtXHDB3+Bfb74ZSRyDT99cWDMZxbGQLZDCDgOylpbtUjdd3J6JBeJC076q0qRojpOERcEWFFOJfd9HuVRGX6UP5VIZ5XIJfX19KJXLWHfiiRhZtgxr1qzB2rVrsXbNGixfsQJr1qxBuVJJfyPzSO3AVjnzLg63bRtb2SxZsbIVw1aSTqHp/Nsy07bTyKoDpf8d8VinYY/ZfifdzwzNIYM2g+OFlOlPWmuDMueTPX7RIVBW0O26LEc8b2SO27QWiDjmi+8BW+kZYwlQGs1WE1OTU3jhhb3YuWsXDhw4gP379mHvCy9g3759qE5VEUURlErYh9dqsd8uMn44TRyyYa19I57S9n5qQpLwwzXwA0iPr4/WLFx8TiINbRFi9ms8G1yH+BxtaAzB9AyTxtDQEL70xS/hnHe/237h2MrDUbIggmULgrWCbFfonj278Z/+7/+EZ7duNRtyN7gwZvWxIISAUtYHxpHOsJ/JNBMFNwnJPDVh/ua4HY1SqYRKhZtnQ0NDGBlZiiVLlmJkZClGlo5gcGgQy5evwJIlS7Bs2QhGRpalTTbf98wN6jjwzorZXsHbTlvPMVOYwXTP3qbOdZ103lIygmsrGMw+0muT2afWGq1WC3HMDnD7HkURdMIWaBzHUEqZChYjSbhniK8rF2rANo3ssfD+7e94HluInmeDSD1I22EQ8LJSyTZ1A3iej8D3Ue4rs+8te4qZyjHTdbKWibV+eXbxTOU12HKavS6d23Rir6n93iGQ+c/c7unHzSLSaDQwNjaGyckJHDw4isnJSYyNjWJqcgrjExOYmpzE2Pg46vWaWTeOWrWKKI4A2/QUSH+AiMuR53N+OXts2gqfsbSOFUpdrDYFFIeWlPv6cO655+Jzn/sc+vr6Umu+syrMBQsiWFao7NOeK6lAEsd46MEH8dnPfhabNm1CqVRCEsdc2DNt5KPBFkDf56ZkHMdpk8r+vl3GgrMMa09ci1WrVmHdunVYs2YNVqxYieHhIfRX+lHuY0d1f38F5XIf+4ekaD9B0SFG2YqZPfTMsBNrRk8n8720W19Paw4iUxFnqmDZ9VnsOqUU6tUannzqSUxMTGJiYgL1Ojula7U6arUqarU6GvU6wjBEnMRIYhPUaUMDEg4N4Oyw3ETSRFAJhxEQOCbHDtPATPUTfK2E9TUZa8nzOLiUBYzPW0pe5nntaPggCOD7Hnw/QLlUwvCSYQwNDWNgkP17Q0ND5jWMwcEBLF+xAieddBJ8M+mnFSor3ulxZa5hp2jZ99lEqfO+dN6HdHtjkaV/AO14sI7yYlYCIMRRhEajgVarhVYrRLU6hTCM0Gw2cODAQbbU9u7Fvn37sGvXLrzwwguoVquI4zgVaL6eXP9mOoejwX5DmGag0gqe7wMCeO97/09cdNGnsWTJEhZFz4y6mAcWRLAs1hy3PymFBEjjsccex0UXXYSHH3oIlUoFlBGgoyW7X601gsDHqlWrcNJJJ+GUU16KV7ziVGzYsAHr1q3DsmXLUSoFXHlMxWk/obLQ9GWdq4+WzitMme6dmbBlfAaROlrstbYV9b577sH/+B//H/bs2Q0Qx2BZAUIam8QWEv/c9AoojDWQrczpcmsZGmaqFGkxy4gVGaFDtlkrxKFXxSzr9KHZ77C/pt1BQsSV5p3vfBc+/4XPY9myZdOEimYRnyzHcu2PZlvTaD303GYivZQd5e8Q2HIjYlcHn7/G1NQUnn9+L5555hns2rULW7ZswdatW7Fr1y40m81p9/dosFvy17gcEIBKpYI//4u/wPnnfxzLlq+AShJ4Jl2UjY2baxZUsDoh4riYIAiwe+cu/Owf/xG33HIL9u/fj3q9jiRJTCHjihIEpTQ+qFKpoFQqYcmSYYyMjODkk0/G6tVrcNJJJ2H9+vVYu3YtBgYHDn9jDrNqNo71Yh3HT8w9BNx2yy246DMXYd++/ZzSVnDhO1qmFdouhGa4N2/707fhki9/GStXruRtMkX9cOIyV3Qez9FwXEd1pB8idn+oRGH//v3Ys2c39u59ATt27MDOnTtxYP9+TExOoNFomlCPBur1BqIobDfxtQ3i9bFsZARr1q7Fhz70IbzrXe9Cua/vOA/82FlUwUqfeqnfA9i0aRMee+wxPPfcczhw4CCiKEJfXxlLl45gZGQpVq06ASMjI1i1aiWWL1+OJcNL0FfhXj12xvLTnqOnj+IhdYwc68Waw58+PswB/+ZXv8Jn//ZvMXrwoLGmjsfx2t103pv/7aw34ctf/jLWnnjitOW23C0Encd0JObyGmuljQPeWJXGf2wrhrW+lVKYnJzE+DiHbIyNjeHAAX4fGxvF1FQVKo4xMjKC5SuW45WvfCX++HV/jOElS1j4j9F982JYVMGCMfOteS4Ex0DZtnez2QQRwfO8NM5oNqyZn/2cNg8WqHB2HZk7e93Pf46/+7u/w8TEBDzpZXqPjpFFLS1HgTklAvDHr389vvrVr+Lkf/OSaZtky0qRsW4BZCxKpTj6P9tksxKQ9e0J404IwxBRyD2YHKDcByLuoUxdGwt4LRe9Jmedy0mSTHOwDg8PY8mSJRgYGEBgorJn01crTjozCFgcYdyYteuO5dWtHPbYiNBoNLh73PpRDvuFmRG2fHbxK3teYRgijqP0b7I+s+OsYJ1l4Uiv46FzH0fzmg1b9nVm/Kg0HRtWwLLLgbb/0dankuncWLZsOfoHBiCkN+1Xucm4cMxemxcAMnFCqeqbXodOUbIX0X6GudDcnc7b2m06L3jnvoqIPcPDnWmz0YQyvUTM4baegWPcvBsIwxaiKO5cfFzk8PRTC8sKFM0QttEpXp0P++wDP4ljwIQsKBP4ejiDYD5Y2F+bAXvBbEqSbALJTrHJCpAQHDXcroCHbm9vzlyRPsGP5dUNENAKW6nA8zWZu+vSjQgAUchxZNkys+B0lofDveYYe77te87Mdj3kYUcxEIcMGf+n5/uASZ64kCyqYFlBkTZnEXj4jr1onRcvK0Czrcu+joSttkf7Ov4vLRzTio/9fUGoNxqIVcIhCMdTyHhkRte/sscZmjGC2WACO8TmWOm8rUfzOuYvzrDoaF6z0VlXsu/Z+jFbXZlWl9LX9B+e7bvzxaIK1kwc6SY4jh2lFEdFww57Os4nY2dN6cJXVrxim2nBCBWw8BWsUHTBpes6wXLMPVEUmwyvZoaT4xGrHNIKQ8RxDO7WP7Rp5MgfTrB6AJUkCEO2sGziuqOMuc41dgwkhEg7BnulI6aoOMHqAeI4Rhi2uMlEM2SCKyhKJWi1WmxZmgwDzsLKN06weoAojtFqtgDjwzFDlTs3Kxxaa9TrNQ5wzOBEK784wSo8nCspjCLjl+Z/vQAR0Gg004HZrimYf5xgFR7BkzyYiG9NNlNEb9BoNNLEc86yyj9OsHqAOI7SJmGai7snjA1Co1FPQxoc+ccJVg+QJAqtkAUrFaqeMDYEatUae+xcc7AQOMHqAZTisAayg13tbD8FRwiBaq2WpuR25B8nWD1AFMVoNZvp38cV5Z5TarUaj1N1FlYhcIJVAI5kO3AcVghxxAGuxYKI0Gq1OFi0c6UjlzjBKggcstAhXgSANJI4RhSGEGYuO90jTSQhBGq1KsjM2gzny8o9TrAKD09Mm8QJQO1JOHvD5iA0m2xhKa0AFzSae5xg9QDVapUn5ARPVw4TVFl0iNiH1Z7h25F3nGAVHkK9XocQ2YlUe8fKqNfrZubk6RPJOvKJE6yCY62MXvXhNJsNM5s4F3XXJMw3TrAKD09AwcNTbIWlTARpcRFCIAxDE9LhrKsi4ASr4BBxs0iYCtx7lVZgcnKSZ6Ry1lXucYJVcIg0z+/ISbBAPTIJBTLN31q9Bjf4uRg4wSo4WhNq9XqPpgjmZuDExGQvtIB7AidYBUcIoDo1lU560mtIKTE2NtYLBmVP4ASr4BBxHNahNbYXTA4BKQXGx8Z6zLIsLk6wCg+hVjs0TfChAlZAzGw5E5OTnWscOcUJVsEhomlO9yLSGaSR7VIgrVGv1Q7dyJFLnGD1APV6HQBPdUXEs+YUU7qMWBEgCfAED/GenJhgB545d0d+cYJVcJRSaDQa05uEwkw5XnRMz+jk5BSgqXfOu8A4wSo4YRih1Wqlg557CTLBsuPj45k2ojOx8owTrIJTrU5x/qtpvWS9MkyFBz1PTpomYc+cd3FxglVwxsbGzZAcNjkERO/4ccx5jo+PmwWiZ069qDjBKjgcNCpApLmn0Hah9UDNJdNLWp2qpk3B3msYFwsnWAVnbHwMML4cOwMyIHrHp0Uc7V6dmupc48ghTrAKTrVaS/027WyjHFBZdKwka63RbDQ6ljryiBOsgjM+Pj7N0cyJ7Kg3qq1x1xEIU1VuFroROvnGCVbBGR8fN+mBTbYGu6IXKi47sSAgMDU5Zfx3vXDixcUJVsEZSwf+Zrr0bW9hDzE1NdUjKl1snGAVHM62aXxYgp3t1COTfFlrShNxEj83e07ucYJVMLQ2ldIokhWsduBoL8VhcRiHlJwmuafOvaA4wSosXDOnptoWltbG6Sza64uOFeparZZGuzvyixOsAkHEQ1GyTExwLigOZeAp6qWZ8qrwGLEiItRML6HzY+WbHim5vUHnODmtElSrVfZdCQGBzBT1PWFo2HgzwU53l60h9zjBKghsQWVVSKDZbCGKIkgpIcCiRcSS1SN6BYCbwVNT1c61jhziBKtAWH8NGWdzrVaF1gowPWVCSpO5oUfCkTLXY6o61SsyXWicYBUQIs6s2Wg02j4bY33Zdb0EEfHQnHQspSOvOMEqCNZPZT8D3AziKHcy4wiNU74XrCuwSNuOiHq9AWWsTUd+cYJVQKxg8fRePYzgiH6tCXESIwzDzi0cOcMJVlERdjhKD5O2fgkqUWg0mp1bOHKGE6wCMc3pTmY+wh6HOxgElFZoNjsm43DkDidYBaZa7XELC2aQNwEqSdBstjpXO3KGE6yCYGOwyI4bFAK1qrOwIAQ0EeIkQRiGzsDKOU6wCoJtDtrBz1opVGu97XQnAEQaniehlUK9Xu+VPBWFxQlWwbDCJYVErVbvXN1TpNEbxBPKRlHYMxEdRcUJVkGwTcL28BviKdp7GdsJASBRtpfQSVaecYJVMLLjCWv13rawbOCoEAJaazTq9d4YklRgnGAVCFs5bQUNW65XDACkENBKo95o9MggyuLiBKsgZJuEABCGoYvsFhzSoEkjUQlaLRc4mnecYBUEK1Qw4tVqtZAoN3aOzPjJbBxWttnsyBdOsApCdvAzjIWlVDJtm17EXhOlFFucTqtyjROsgmGth2azhTjuccHKONyV1mi1WtBaTRN2R75wglUwbGVsNhtQPd4k7DSmms0GkqTHRTznOMEqIEIINBrNnhcsYSxOKSWkEGi1QkRx3LmZI0c4wSogRIRms9nz1oQNorXvYdhCHEWdmzlyhBOsgpBt/hARojCEVgrCxnbTDG2kgiNMWAMR57SPorjnRTzvOMEqCDwYx8RiERA2m9BKQRL/3YtuZk0a0uOQBk9KRFGI2DUJc40TrALQNpzastQKQ8RRj1dOc2GElIDxYTnByjdOsApDW6yEEM6HZSEOeBcAWi0X6pF3nGAVjDQOy/USsrMdgFYaBCCKQiSJs7DyjBOsgmDtKxYscnFYKcavl1pYTrDyjBOsgkFag4h9WEmPD82xvj3pZXxYSeLGEuYYJ1gFQ0iJJEnQbDTgSa9zdc8hhIBSClrptJfQDc3JL06wCoK1GQSARCUIo6g3YxlmwM52HbZCJK5JmGucYBUNIRDHMVoueR9Hp5Gd6os4R5iLdM81TrAKQmpMESGJE7RaLeerMVdFE/cSapMnzJFfnGAVjYyF1euClW0R2zGFtWq1569LnnGCVRCm+bAStrB6HStMUraL+dSUE6w84wSrYGgiJEmCsNXq3d4wHvMMAk9AQcTzNAqAZ85xepVbnGAVBCtNWmu2sMKQnc09gOho/rUXCggpoLWClMbx3mgCZnZsR/5wglUQ0kwNQiBJXC9hJ2TmKKw3GtCuSZhbnGAVhKw15ZzuFpqWA0wIgWp16lBrzJEbnGAVkNiFNaSklqf5V52qdm7iyBFOsApCVppc4OjMEAjVWm3atXLkCydYhaHtw1JKIXJDc6ahjQ8rdJZnrnGCVSgIWik0Wy4XFox4E3EcFmkNKSWqtSpIO8HKK06wCoaUEvVajWdecPXSWJ48KzYRoVqtpn4tR/5wglUYOBpJSImpqSrHIPVq4KjBtvyEEXIhBOq1umsp5xgnWAXBVkIyWQmmLXQAxsJqhaGzr3KME6yCYCshaQ3f9zlQssd9NULYvO4EIg0igudJ53TPMU6wCkB2aIr0PFT6K+xodrYEu/KI/VhSeujv7582GNqRL9ydKwjENRNEhBUrV0JpDQgBLQAyg4F7DSKCkIKvA2lo0lg6MsKmlyOXOMEqAFashBDQWmN4eBgDgwO8zjYXZxwhXHCEgNKaxw6ayQnXrF3b850RecYJVgEQmR5BIQQGBwdx4oknOkvCijkIUkpoTdiwYUPvCXeBcIJVEMg0B4UQWLp0KdavP8k5l42AcxwWhzaceuqp8D03m1BecYJVMIgIIyMjOOWUU+D7vV0xrYADBK0JK1euwCmn/BtAuGKfV9ydKwg2MNLzPPi+j9e85tVYMrykc7Oeg5vLHMpw2mn/FieddHLnJo4c4QSrQGiTSVMIgde97nVYvWZNGnckIEDaWhzomRgtrTV830MQ+Dj99NOxfPmyzk0cOcIJVkGwzR+tNYQQWLNmDc4++2wkZmp2djrr1NoQsvieZwEBKQXiKMaKFStx1llnwfcDkEuRnFucYBWEtr/GIvCXf/mXGB4eRrlcRpwk8AMfcRz1THyD0gpKaXi+jzPOeAPe8IY3QCUJhAsczS3uzhUEKY3lZJt8RFi5aiU++cn/xhaW4EhvEOAZa6vo+L4PKSUGBwbwiU9cACKC5/s2Ms2RQ5xgFYRsWAO/s5/qfe97H9545pkgAEolkJ4HMnFJRUdrjSAIcMHfXIATTzwxvTZOr/JL8UttD0Am3spaWRbbpf9fP/IRnHLKKfA8H6R5EHAvhGgJIfDOd7wDf/EX/1eHBdoDJ19QnGAVAO6656ZgHMep8x0Ayn0VvOGMM/D+D7wffuDDC3xOaXc4N5Ydz7NYr+OgcxcEYMOGDfgvH/kvGOjvhzBhHwBcHFaOcXeuYJRKJQCctQGSx88JT+Iv/8N/wHveey78UgAFgiKC53kgzUGVAKASZeaWaQ89XOjX4SDiY7UCba1JpbWZMFVDSAmlNVavXo3zP/EJbDjt3wK2+St4ILQjvzjBKjjWtxWUAlz4qU/h/R/4AAYGBqC0QpwkCEoBhPH3eJ4HrfXxGjlzwuHkRAgBz5NQinv/bDOPhUyDwO/r1q3DhZ/6FM4+++zOXThyjqCs08NROKIoQhAEqf+mVqvhxz/+Mb7/3e+hXqshCkP09w8gSWIOLDXxWWKRSgVhdtUiTYAAhJCQ1sIy6XOsgJ166qn49Kc/jTe96U2zhy/Msn9H9+MEq0dQSiFJEpTLZURRhF/8/Be47NJLMTo6Cq01SkEArVS793AxS8URBEUrzm3Fw5EkNDQIAq957WvwxS9+EaeddhpvZ6xGR3FwglVwiAjKCJGNdpdSQicKDz/8ML71rW/hD394FOPjE2kWAyI6kmbMK7MVSDI+KgH2R0khQABWr12Ds9/+dnzkIx/BqlWrACPQvu937sKRc5xgFRzr37H+nrQim/GFY2NjuOWWW3DjjTdi48aNSJIYyDjeFxrbwzcTQgBJohAEAeI4xgmrVuFP//2/xzve+Q68+S1vAUxohx2exN9ZjLNwzBdOsHoA67+yt1qY2aE9KQEIxHGEiYkJ3Hvvvfj1jb/GPffcgziKICU7uNlXxBbNjAiBuQzsIiuWQpjJI2znHp/D2jVr8Gfv+DO8+93/B17+8pdhYGgoPb/su6N4OMHqcbTWqdUlhEAcRdj3wj7ccMMNuO22W/HcczuN1QVEUQwgG3Q690VHm9l+2D8lIKRAEASoVCr4kz/5E7zjz96BM888k3OzW5w29QxOsHqUrLWV/dv6iThHvMTU5CR27dqJ3bt3Y3R0zGxnRWvui45tEkopMTAwgJUrV2L9+vVYvXo1yqVSau11WoyO3sAJVo9iKz5MVgMp2Jmd9qyZdhlpDdhNZwsTmENmK44ziRLZ8ZPHcVyH7s2RB5xg9SjGTuLEfsZiIq0hOya0SDfGwtVyK0SdA7Q7Ow9ss/F4oteP/RuObsAJVo9CAM/VpzV8z4wvNOuylTmO4zQkYiYrZ76x4gXTTOxcp7SC9DzTr3n0HNvWjm7BCVaP0nnTrbXFfxzqG6IF7Hk73G/ZdbbYChOLdazMvHdHt+MEy+Fw5IZj91Y6HA7HIuEEy+Fw5AYnWA6HIzf8/5Cxx9Svh4O5AAAAAElFTkSuQmCC;" vertex="1" parent="1">
          <mxGeometry x="320" y="280.9" width="43.39" height="38.19" as="geometry" />
        </mxCell>
        <mxCell id="gpXHtfz_gADmp17LL22E-7" value="" style="endArrow=none;html=1;rounded=0;strokeWidth=3;entryX=0;entryY=1;entryDx=0;entryDy=0;" edge="1" parent="1" source="gpXHtfz_gADmp17LL22E-2" target="gpXHtfz_gADmp17LL22E-1">
          <mxGeometry width="50" height="50" relative="1" as="geometry">
            <mxPoint x="250" y="390" as="sourcePoint" />
            <mxPoint x="300" y="340" as="targetPoint" />
          </mxGeometry>
        </mxCell>
        <mxCell id="gpXHtfz_gADmp17LL22E-8" value="" style="endArrow=none;html=1;rounded=0;strokeWidth=3;entryX=0.025;entryY=0.59;entryDx=0;entryDy=0;entryPerimeter=0;exitX=1.007;exitY=0.59;exitDx=0;exitDy=0;exitPerimeter=0;" edge="1" parent="1">
          <mxGeometry width="50" height="50" relative="1" as="geometry">
            <mxPoint x="370.55999999999995" y="299.20000000000005" as="sourcePoint" />
            <mxPoint x="492" y="299.20000000000005" as="targetPoint" />
          </mxGeometry>
        </mxCell>
        <mxCell id="gpXHtfz_gADmp17LL22E-9" value="" style="endArrow=none;html=1;rounded=0;strokeWidth=3;entryX=0.404;entryY=-0.013;entryDx=0;entryDy=0;entryPerimeter=0;exitX=0.404;exitY=1.021;exitDx=0;exitDy=0;exitPerimeter=0;" edge="1" parent="1">
          <mxGeometry width="50" height="50" relative="1" as="geometry">
            <mxPoint x="530.3199999999999" y="141.67999999999995" as="sourcePoint" />
            <mxPoint x="530.3199999999999" y="258.9599999999999" as="targetPoint" />
          </mxGeometry>
        </mxCell>
        <mxCell id="gpXHtfz_gADmp17LL22E-10" value="" style="endArrow=none;html=1;rounded=0;strokeWidth=3;entryX=0.025;entryY=0.59;entryDx=0;entryDy=0;entryPerimeter=0;exitX=1.007;exitY=0.59;exitDx=0;exitDy=0;exitPerimeter=0;" edge="1" parent="1">
          <mxGeometry width="50" height="50" relative="1" as="geometry">
            <mxPoint x="570" y="99.66" as="sourcePoint" />
            <mxPoint x="691" y="99.66" as="targetPoint" />
          </mxGeometry>
        </mxCell>
        <mxCell id="gpXHtfz_gADmp17LL22E-11" value="&lt;font style=&quot;font-size: 18px;&quot;&gt;1&lt;/font&gt;" style="text;html=1;align=center;verticalAlign=middle;whiteSpace=wrap;rounded=0;" vertex="1" parent="1">
          <mxGeometry x="341" y="320.09" width="60" height="30" as="geometry" />
        </mxCell>
        <mxCell id="gpXHtfz_gADmp17LL22E-12" value="&lt;font style=&quot;font-size: 18px;&quot;&gt;1&lt;/font&gt;" style="text;html=1;align=center;verticalAlign=middle;whiteSpace=wrap;rounded=0;" vertex="1" parent="1">
          <mxGeometry x="287" y="289.09" width="60" height="30" as="geometry" />
        </mxCell>
        <mxCell id="gpXHtfz_gADmp17LL22E-13" value="&lt;span style=&quot;font-size: 18px;&quot;&gt;2&lt;/span&gt;" style="text;html=1;align=center;verticalAlign=middle;whiteSpace=wrap;rounded=0;" vertex="1" parent="1">
          <mxGeometry x="550" y="310" width="60" height="30" as="geometry" />
        </mxCell>
        <mxCell id="gpXHtfz_gADmp17LL22E-14" value="&lt;font style=&quot;font-size: 18px;&quot;&gt;3&lt;/font&gt;&lt;span style=&quot;color: rgba(0, 0, 0, 0); font-family: monospace; font-size: 0px; text-align: start; text-wrap-mode: nowrap;&quot;&gt;%3CmxGraphModel%3E%3Croot%3E%3CmxCell%20id%3D%220%22%2F%3E%3CmxCell%20id%3D%221%22%20parent%3D%220%22%2F%3E%3CmxCell%20id%3D%222%22%20value%3D%22%26lt%3Bfont%20style%3D%26quot%3Bfont-size%3A%2018px%3B%26quot%3B%26gt%3B1%26lt%3B%2Ffont%26gt%3B%22%20style%3D%22text%3Bhtml%3D1%3Balign%3Dcenter%3BverticalAlign%3Dmiddle%3BwhiteSpace%3Dwrap%3Brounded%3D0%3B%22%20vertex%3D%221%22%20parent%3D%221%22%3E%3CmxGeometry%20x%3D%22340%22%20y%3D%22319.09%22%20width%3D%2260%22%20height%3D%2230%22%20as%3D%22geometry%22%2F%3E%3C%2FmxCell%3E%3C%2Froot%3E%3C%2FmxGraphModel%3E&lt;/span&gt;" style="text;html=1;align=center;verticalAlign=middle;whiteSpace=wrap;rounded=0;" vertex="1" parent="1">
          <mxGeometry x="541" y="119.99999999999997" width="60" height="30" as="geometry" />
        </mxCell>
        <mxCell id="gpXHtfz_gADmp17LL22E-15" value="&lt;font style=&quot;font-size: 18px;&quot;&gt;4&lt;/font&gt;" style="text;html=1;align=center;verticalAlign=middle;whiteSpace=wrap;rounded=0;" vertex="1" parent="1">
          <mxGeometry x="657" y="119.99999999999997" width="60" height="30" as="geometry" />
        </mxCell>
        <mxCell id="gpXHtfz_gADmp17LL22E-16" value="&lt;font style=&quot;font-size: 18px;&quot;&gt;5&lt;/font&gt;" style="text;html=1;align=center;verticalAlign=middle;whiteSpace=wrap;rounded=0;" vertex="1" parent="1">
          <mxGeometry x="235" y="440" width="60" height="30" as="geometry" />
        </mxCell>
        <mxCell id="gpXHtfz_gADmp17LL22E-17" value="" style="endArrow=none;html=1;rounded=0;strokeWidth=3;entryX=0.025;entryY=0.59;entryDx=0;entryDy=0;entryPerimeter=0;exitX=1.007;exitY=0.59;exitDx=0;exitDy=0;exitPerimeter=0;strokeColor=#FF0000;" edge="1" parent="1">
          <mxGeometry width="50" height="50" relative="1" as="geometry">
            <mxPoint x="369.99999999999994" y="310.00000000000006" as="sourcePoint" />
            <mxPoint x="491.44" y="310.00000000000006" as="targetPoint" />
          </mxGeometry>
        </mxCell>
        <mxCell id="gpXHtfz_gADmp17LL22E-18" value="" style="endArrow=classic;html=1;rounded=0;" edge="1" parent="1">
          <mxGeometry width="50" height="50" relative="1" as="geometry">
            <mxPoint x="370" y="390" as="sourcePoint" />
            <mxPoint x="350" y="320" as="targetPoint" />
          </mxGeometry>
        </mxCell>
        <mxCell id="gpXHtfz_gADmp17LL22E-19" value="Fiatal" style="text;html=1;align=center;verticalAlign=middle;whiteSpace=wrap;rounded=0;" vertex="1" parent="1">
          <mxGeometry x="341" y="386" width="60" height="30" as="geometry" />
        </mxCell>
        <mxCell id="gpXHtfz_gADmp17LL22E-20" value="" style="whiteSpace=wrap;html=1;shape=mxgraph.basic.pentagon;fillColor=#FF8000;strokeColor=#FF8000;" vertex="1" parent="1">
          <mxGeometry x="500" y="289.09" width="10" height="10" as="geometry" />
        </mxCell>
        <mxCell id="gpXHtfz_gADmp17LL22E-21" value="" style="whiteSpace=wrap;html=1;shape=mxgraph.basic.pentagon;fillColor=#FF8000;strokeColor=#FF8000;" vertex="1" parent="1">
          <mxGeometry x="510" y="310.09" width="10" height="10" as="geometry" />
        </mxCell>
        <mxCell id="gpXHtfz_gADmp17LL22E-22" value="" style="endArrow=none;html=1;rounded=0;exitX=1;exitY=0;exitDx=0;exitDy=0;strokeWidth=3;" edge="1" parent="1">
          <mxGeometry width="50" height="50" relative="1" as="geometry">
            <mxPoint x="10" y="20" as="sourcePoint" />
            <mxPoint x="90" y="20" as="targetPoint" />
          </mxGeometry>
        </mxCell>
        <mxCell id="gpXHtfz_gADmp17LL22E-23" value="" style="endArrow=none;html=1;rounded=0;strokeColor=light-dark(#FF0000,#FFFFFF);strokeWidth=3;" edge="1" parent="1">
          <mxGeometry width="50" height="50" relative="1" as="geometry">
            <mxPoint x="10" y="54" as="sourcePoint" />
            <mxPoint x="90" y="54" as="targetPoint" />
          </mxGeometry>
        </mxCell>
        <mxCell id="gpXHtfz_gADmp17LL22E-24" value="" style="ellipse;whiteSpace=wrap;html=1;aspect=fixed;strokeWidth=3;" vertex="1" parent="1">
          <mxGeometry x="10" y="70" width="40" height="40" as="geometry" />
        </mxCell>
        <mxCell id="gpXHtfz_gADmp17LL22E-27" value="= tekton (5db)" style="text;html=1;align=center;verticalAlign=middle;whiteSpace=wrap;rounded=0;" vertex="1" parent="1">
          <mxGeometry x="58" y="74.99999999999999" width="80" height="30" as="geometry" />
        </mxCell>
        <mxCell id="gpXHtfz_gADmp17LL22E-28" value="= fonal (1db)" style="text;html=1;align=center;verticalAlign=middle;whiteSpace=wrap;rounded=0;" vertex="1" parent="1">
          <mxGeometry x="91.94" y="38.999999999999986" width="80" height="30" as="geometry" />
        </mxCell>
        <mxCell id="gpXHtfz_gADmp17LL22E-29" value="= szomszédság" style="text;html=1;align=center;verticalAlign=middle;whiteSpace=wrap;rounded=0;" vertex="1" parent="1">
          <mxGeometry x="95.94" y="5" width="88.06" height="30" as="geometry" />
        </mxCell>
        <mxCell id="gpXHtfz_gADmp17LL22E-30" value="" style="shape=image;verticalLabelPosition=bottom;labelBackgroundColor=default;verticalAlign=top;aspect=fixed;imageAspect=0;image=data:image/png,iVBORw0KGgoAAAANSUhEUgAAASwAAAEICAYAAADlQMlVAAAAAXNSR0IArs4c6QAAAARnQU1BAACxjwv8YQUAAAAJcEhZcwAADsMAAA7DAcdvqGQAAD9MSURBVHhe7b15vBxHlef7i8jMqlt3k642S7JkMwaMPI3ZGtz4YRjoMe/TgHmY1/1Y3J+B+bz59AxDPx7GzYyZh6EB94BZbBo+NGa3wZh2g92NjcFuL+PdgLziXYslWYtlLXetNZeI8/44EVl5S/dq810qs+KrT6nqZmZl5RLxyxMnTpwQRERwOByOHCA7FzgcDke34gTL4XDkBidYDocjNzjBcjgcucEJlsPhyA1OsBwOR25wguVwOHKDEyyHw5EbnGA5HI7c4ATL4XDkBidYDocjNzjBcjgcucEJlsPhyA1OsBwOR25wguVwOHKDEyyHw5EbnGA5HI7c4ASrx9Bag4gwW6LZzuUzbdv5t2WmbReKxfpdx8IiXIrk3sDeZiHEIcuJaNpyIcS05UIIaK0h5cI936ywCiHS3z3SMdjvAICU8pBzdeQfJ1g9QlaUOm/5TMtnrexk/5tlPahj9WzbZbC/azftOJ7ssXQeIxGlQmb/zp7PrOfhyCVOsApO1iqxFXgmIbDrLZ0iQUSQBNRqNYyNjmFsfAzj4+OoTk2hVq+j1WohDEM0Gw20WiHiOILSGlJIQAACAkKytSSFQH//AMp9ZfT392NgYACDg4MYGhrC4NAQlo6MYMWK5ejvH4AQmd+XHoCMRTjD8XeKVOc5OvKNE6yCkxUp0hrS8zo3SdFKg0hDKYVdu3dj27Zt2LFjB7Zv24bde/bguWe3IQxDRFEMmP0mKoFSGlorKKWgEgViMwxCSCOCbYGUQkJIPh4WUm5yep6HUhBAeBJCSgRBgKGhQaxZsxannvpynHTSSXjZy16O9evXY/XqE+AHJZDWEFKCiN8dxccJVlE40l0kzS01IaGSxAhPhHq9jtHRUWzduhUPP/wwntn0DDZv2oRGowmlFDxPQhMhCiP0lcvcfCMYURIACALG2jFFKdsiFFKk21sLiDTB841wpvsCAMGfBR+n1gpaawgh4XkeoihCpVLBsmXL8JKXvASvfvWrcdppp2HDhg0YXjKMSqWCvnIfKpU+QAiQppmFzBlducUJVpfT2cTJkq477B3klWGrhX379mHHjuewZw9bT1u3bsWWLVuxf/8+xFGcNrHazca2pSSFgEoSeIItIGuxcdOMtYq/3ul/ai/LQqTNJ7aweBkZwTp0e5jjUkqBiOB7PoTkzgA/CLB27Vps2LABL33pS3HyySfj5JNPxrp167By5UqUymWzh4yUstYe+jn7+1nldXQFTrC6FLYs2gKSXQ7TC5ZdJtOKaCq/1oiiCA888AAef+wxPPnkk9i7dy8OHDiA/QcOIAxDyFmEYTYEGz/zCuHYRUITGWvQg5ACvh9g9erVWL16NdauXYtXvep0nPGGM/DSl70MfZUKfylb7IVRLM1iRaTZakyv8ewi6lhYnGB1IZ1WFWUrpFmulAIAeJ43zcJKwggPP/Iwbrj+etx6660IowhxHCNJEkRhiCRRKJVLkEJCp1bO0SEWqqQcozb4fsDNR6L0vFSSGOtPwPc8VCr9OGH1CXjrW9+Kc845B6969atZhNqm4XQy1xw2rMOboXnpWFCcYHUhtqJkRcnepsRURN/3QUSo1+sYHxvDjme349ZbbsFtt92GPc/vgZQS5XIf99YpBSEkfN9jF5S1IGaop4vOcZTGtrC0LVMhBIT1iRFbYUS8TkqJE9evxzvf+U689a3/DieffDKWLVuGUlACTNNXGmuN27uaRW0mYXMsKE6wupC2/8c070ysERHB930opbBz50488cQTeOCBB/DIQw/j2S1bEEVRO4yBgEQlCILAfBeQMgcV7jianUIKaAK0VhAQ8HwWeCteRJSev4BAohWklEiUQqXShw0bTsOZZ74Rr33ta/GqV70KK1ashB/40CrT/M7DtesBnGB1KbayJUkC3/ehtYbWGhs3bsSNN96Ixx9/HLt27cLU1BRI6XSMVduyMI5tAjzfgxQSSitopSFk29F9LCxEQTkeP5kmMjFeHoTg8AyttekMYLHyJMeDAYAQEmEUwg8CswduSo6MjOBk0/v4zne+A6effjqCoASAIA4TDuJYOJxgdSFaaRDI+KcIURThpptuwuWXX45t27YjSWIopQGzDSkN3/NSKwwZ4YKx0AiU9vZZ39WxitZCFBRxHL4y6UnEcQJCO7iUERAC8KSHOIl5W+mxJSYlXy8AvuchNk1t0hr9A/2QQuKP/uiP8F8/+lG87U//1O7Oscg4wZpntA3czEZo86M/7amSNkyAOKZJAGjU69i1axfuuusu/OLnP8f27duBWUSjcPVoppM8HHN4AbQmeJ5EknBzOkkUTjttAz7wwQ/irDefhbVrT0S5rzztR7XiJqZ9KPAJdKmPMOc4wZpnNLXbOALGurH+JOKmn3Wqa6XRbDTwu9/+FvfefQ/uuusu7Nq9K7UU3K2af5TSKJUCJHEC6UloTUiSGP0DA3jJS16Cs978ZrztbW/Fa1/7OlQqlbSnUWsF6XkcrCrQFqxjtGIdh8cJ1jxjQiH5s4nzkYIfwmSGp6hEIVEJ7r7zLvzjz36GZ55+GqOjo2g1WwhKAUjzXuy4PMf8wT4+mT4ghODPmgiJUiiXy1i5ciVe//rX47zzzsMZb3gD30ffSy3n1JIWzsqaa5xgLQBZv9JMy5556il8+tMX4cEHH0QQBCCl0Wo1sWTJEiRJApUoeL4HpbR7YM8zUkrEcZw+HLTmEJBEK1T6+6GUQhi2UApKEFLijDPOwFe+8hWsW78eKonh+QFAmjtLgsBZWHOME6wFhIgQxzEEgFarhUcffRT/dM0/4eabbzLj3gSSRMEzsUKkyRR8H4CJwHYVYH4hM/7RxHdJKeF7PmKVIFEJPOnBDwIkSQyAB20DwAc+8AGce+57cNppp6FS6ef75EIh5hwnWPOMbR7YITVxFGHjxo341fU34K6778a+fS/A8zxoTe0ePA0Egc/i5cm0RzA7HMcxP9j7ZQNrOZyEID3OMmHHMkrpgUjzuwmhWLt2Lc4+++1497vfjdNPPx2lPjuG0TFXOMGaI2zcFDJNP9uc0FrBkx42b9mMH/3wR7j99tswOTnJkexke8XMbRA2GKHd2QSbE889sOcdGx2f+qFMNgnu6QX37JpIejv4m8y9JiJU+vqwes0anPOuc/Dh//hhjCxfBs/zeefGwg7KJdNDzDfUpsfRih33jtlxgjWH2EtpmxJJwk0I0ho/u/pq/MO3/wH79+2HHwSIoyhtTjgdyjdJotDX14ckSQBrpQFY/5KT8fnPfx5vetOboLWG73sQsi1IOkkAAUjPN7m93PCfI+EEa47IDgOxFtbk5CQeefhhXHnFFbj33vtSQZOZp7Mj/0gh2b/leUhi9jmSJmhwz+K5556LD3/4wzj99FeiVC4jiXlbi02sSEQQboD1YXGCNUdoM4bPNg22bt2Kq6++Gr/+1Y2YmpxMfVgANw2k4EBDdAxFSW+G07LcwJlV+QGkFQ+UFgJIlEJQCiCExLp163DOOefgvPPOw+o1awAjVACx1WVz09vEho4ZcYI1R8QxD/3wfR/XXHMNLr/8crzwwgvwhEStVkNgn6gElPvKaDQaCPxgRl0iOMHKE1oTSqUAYSuEH/jmYQTESQw/CFCr1dDfX0EQlHDqqS/Hxz9+Pt72trdBetwTnGZFJXI9i0fACdYcobXG7t278aUvfQk33ngjSqUSkiRBEkYYHBhInbdE3FMYlAJOGDcDTrDyRRiGCIIS56SXAvV6HZ7nQXoelObI+VYrNOl9CH19FXz4Qx/CX/3n/4zh4WEEpRLHcHm+E6wj4ATrCNiLk/VNdRapRr2BW2+5Bd///vfx9NNPQ5i8VdKT8KWPJIlN6IJNERNwzqUZfFiuSZg/bCYM7jnkNr4nPSSa85mRGdHA997nsiEl3vjGN+JjH/sYXvOa16BU4kBUdrpPTyqYLXvIlpEeLCZOsGbBXhYChynYQcwA9wBpxT6rbc9uwxU/+hFu+vVvMDk5Aa01At+HSrgAwwx8djgsZJMoCoETTjgBH/zgB3Heeedh+apVgPWHeuwPTR+S5n2mktRLouUEawbIpMf1fR+a2CqS0oNWPIuLzfb529/+Fl+55Mt4+qmnELZCBIHPBUubuB0yUtVLJcpxFAj4vodWs4XBoUFopfHGM8/EJZd8CatOOAEQAtrGfqXTobXprLC9VLycYB0GSifw5AJjo5zjOMb111+Pr331axgdPQhSGuVSCUTgXOImx1KSJCDBE4g6HCnGn8nzObKPSwiBlStX4u+/8Q285nWvNQ9Lznc2U/hLrzYLnWDNgA1RsLnCrc+BiLBjxw5ceeWVuOqqq+BLD0olEOCJDpIkAYjjrARgmoM9VqIcR8RWuVKphFarlVrsRITKwAA++tGP4s///M9xwuoToEw4TDZuy2Irbi8VLydYM0B2/J8dOmOmWv/t736Hy7/9bWx8YCOajWaaL12YuCoIdsCCeNCynRjBXWDHdDhwWJNGKSghjmP4ATvjNRGGhofw9rf/77jwUxdi5cqV7IP35IyWVq/hBGsGbOYEVhpWrP91++34zGc+g+f37EGpVEIUx9zrY9IYwzYhzSBmATMZqXQ5kRzTseVESJ5Nsj07Nfs8tebg01e84hX42te+ij965SvdkB2DE6zM1FnWyWnH/wFAvV7HP193Hb7whS9kBOwImE2E/ejKmuMooXR4FwvbypUrcckll+CsN78ZQsrUp2XdFnEcI0gn0yg+PS1Y1m9gxYqndbJOdoF9e/fi+9//Pq655hq0mq1jy0dlhtw4wXIcCzZ8RmkFKT2USiWMjCzFR//6r/GBD3yQ09yY8gq0wx16BSdYmXxVdlCylB5GDx7E5z/3Odx2220IwzC1vnqtgDgWFq1timaBKI5N9LzE0NAQ3ve+9+HjH/84+ip9EKYTCD0mWj0tWMoE5tmI8zhi83rP7l34q7/6K+x6bifiKAaIePhFqZQ2FWfCWVOOFw9nltVao39wAKOjo6hU+lEul1Gv1/H+978fF1/8BVT6+xHHCQ/x6iF6XrC01vDME00rjScefwyf/cxn8cQTTyCOIkgh0Vcq88SbnndE5ycdfrXDcVjIDN/RWnNYje+3y6nxX73nPe/Bf//v/y0NMnUWVo+g0U7vopTCxt9vxKVf+xr+8OijSOIYpaBkenTM1Fxe2wyfDSdYjheDNgPipRSc3FSyK0IphXJfH6IwRKlUwrvOOQd/88lPYvWa1TPGaBWVnhGsJEngmQA9YQI7yUzbDk144skncf7HP84Tlpp5A4lY0I7Jd3WUmzkcM8NNQjsUTJgJWkEcBqGUgoCA53s444wzcOlll2L12rXtrxu/bFEtr55IbxjHnC0hi3VuggQe3PgAPvj+92Pbs9uMP8vcdLAAcepaI0ZHejkcLwo7htA8TM1ge8AO+xLwPInAD3DH/7oD53/8fOzcsQMgoDo5BUCYuRSLWRgLL1jWJ8BPJr7pKklAREjCEPfdczcuvPBCVKtVBIFvQhscju7D83yOz9KEZrOBJUuGsXHjRlz8hYuxY/t2DA0PAaTZhTFLrrW8U3jBsuEIdgCz7/vwPA8qSfDAAw/gkksuwY4dO1CpVNBqtdLvOBzdBBHBMylnyIwtbLVCCAB33XUXvvzlS7DvhRcAITN5tYpHT/iwrA8qjmJ4Jmf2U08+hQvOPx/bt21DHMfo6+uD1gSleOYTJ1qOboMzO5QQtkJIyfMkCikRRRGCUglnnnkmvv71r2PFypUAaaCA81gWXrDIJPf3pJf6prZv3473nvteNGo1aDO7cqkUpA5NHttV6MviyBmloITJqSn0lcvwTNiDEOBJdgU/YMMwxLvOOQeXXXYZBgYG2Moq2HO3UBLcqb3ZHkGA2/5bNm/G31xwARq1GpTS8DyJUqkEpTiIlLuRnR/L0V20whb6+yvwfJtIktMvSzOAOkkSDAwM4M477sBll16KarXKX9RmFl5DZx3JG4USLGQsKrLduzb1C4Dnn38eX//63+OJx59IQxd4Ww0pe3d8lqP7sfnYOJND+2/uRRQoByW0mk1opXDtL67FlVdewQ54+/AltEMeckxhBItNZBYdIQSSOOYUL1a8lMJXv/IV3HnHHdBKQZknlMORd3g2Js4yIqVEo9nA9777Pfzkxz+BEAIqSVixTHJJmw4pjxTKh0Uws+gaZ6Pt3lVa4zMXXYRrf/4LEBGUViiXSkiUEy1HvuHay73gAjxgWkoBz/MQK4UrrrgCb3nLW7izSRM74nPcgCiMhcUWbzsBGpkhNWEU4Sc/+TGu/+UvobWCFGw+R2Hk/OqO3CNMc1GZVkMQ+DzVmAl9+OL//J945JFHOHuulCClcm1hFUawACBRCTwp+QYmCYiAO++8Az/43g+grDVlJpHopaRnjgLDwfCQwsRoEWfL1VoDRNi2fTu++c1vYu/evQBpCC/fVT7fR9+B5/HMumQCRXfs2IFv/P03sH//Pmg7sYTW8D0PccLxVg5HvhFIlIImjcAPQGZkh+0dJ6Xw2/vvx6VfuxSAAClOv5xXCiNYmjQ/ZYxgxXGMCy+8EFu2bAFsc5HYfNZE8AoYVOfoRTgCnss1dzzpzEw77IyXuPbaa/G973yX3SCae8+jKAKMC8V+h/d46KtbKEytlcJMyyUlGo0GvnDxxXj00UfbTUGHo8eIIx70H4URAj/At//hH3DzzTdxL3mSwPd8wITx2I4qdPkY/sIIlgD7p5IkwXXXXYd/vu6fAeOQdDh6Ec/32BXiefCkxFS1issvvxybNm2CECZtjWl9ZN/RxaJVmNqcJAl838dDDz2En/z4x2g2G2g2m52bORw9A8chErTmGcujKMTmTZvxve99D/V6LU0NLiU77DsDprtRtAojWL7vY2x0FN/9znewffsOSCHQ31/JdReuw/FiiOII/f393HMoBAYHhxDFMX71q1/hX/7ll2lgNQBEYdj5daALRaswgqUThSuvuBL33nMPSGsIIZFE8SFPDYejV/D9ALV6HZ7nQZNGHEfwjDV12WWX4cEHHuCYLa3R11eZdYKVbqpBuRMsMvmtbXvbxp7cesstuPqnP0USJxAAfDO3YHvos/n+tL8cjuJCRBxISkhlx/qtpqam8IWLL8aePbvTYK72DNTdS/cfYQdpcJwQSJIEUkps27YN3/zmN7Fn9550bkEik1o2a2EJfjnRcvQCtujze3teAhuTuGXLFlxxxZUmcWU+KkbuBEua6bq1mfZobGwMV111FTZt3oylS5bA8zz4np86EmcLa8g8dByOniLwfSRxjFaziZtuugn33XdfuznYbYFXHeROsJDpftVa44EHHsBvfvMbY1VpRGEIIkJiht940jw5sjfBWFoORy+ilILvcarwAwcO4GdXX42xsTHOUmrpUtHKnWBlxarRaOCHP/whDh48yBdYE8qlMgQArXiCVFLaaZPDkUFKD1EUApoTBNx9z9249tprD32Kd6Fo5U6wpBnc7Ps+rrzySvz+979PY0iUUoijCCpRCAIeV9WF19zhWFSE4DAg6XFKGlIal156KZ566snOTbuOrhSsbAtOd0Thaq1BmvDoI4/g29/+NvcCEn+DhIDwPPgB57wOowi+z8MPHA4Hww94iSiOARASxWmXLrnkEjTqdd7IGltdlqW0OwWLCASCMsn2yFw0pRQkgKnJSXz9sq9DxQk8IeCZ07ATnmoQSAB+4EOR5unjXbvQ4QDAYweF4MHRGoD0PERxjEcf/QOuv/6XiOOoXQdNj3u30JWCxakxBLRm5yBMU5BFS+Pmm2/GQw89xNlFhWTrqosuqsORR2q1Kn7xi2uxa+eu9PnueZx2uVvoniPJQEScAsbzU+sKRrSef/55XHfddYijCAJAksSFnprb4ZhPsrVGCIknnngc//qv/wqtNATYL9xNxkBXCpYQAgQb+MlCFccxQMDtt9+OJ554HK0wTNNiuGm5HI5jp/MRT0SIohjXXHMN9u7diySO4Hk88XC30JWCBZgJJMDed601At/HC3v34qc/vQrNRhOB77NPS0puFnbPQ8DhyBXWxSsA+J6H7du341vf+hZ834dOFOeD7xK6U7DMlEXCfBZCgAj40Y9+xJkYzAwhRDx1UTZbosPhOHqyYgXiHkPP83D99dfjwQcf5Bl4ZPdYWV0pWCxQbDJZ39QzTz+Nq666Kl1OJh0sEaV5fRwOx4tACMhMiuVvfOObh7RcssPdFsNQ6ErBIpOHWikFrXm4zY+u+BHiOJ7e7qZD2+EOh+MIZAMdMwjjeJdCII4iPPP007j55psB8IzT1gVjc8U7wTIIo/KeSe36yMMP47577zPhDtZ8dWLlcBwP2TqUhcxcnr7nIYkTTE1N4dbbbsPY2Hg6woRDixSE4MlaF7oHsSsFC0a0lFKo1xu49dZbzeDMhb04DkeR6RQt7nUX0ErD93lC1nvuvhtbt25FEsfpNtZNk/28UHS1YEkpsXv3Ltx5512IonDWVDEOh+P46BQtGEtLJQmSJMbo6Ch++ctfpsJkm4W6Y2qwhaJrBStJEggI3PirG7Fjx3YQAZ4bF+hwzDmpaBFAmiA9nlFHSo5yv/nmm7Ft2zYex2t8V4thXaEbBCsbyZ79LCFQr1bxy3/5F0gIkFLwOrKHWt+hayg6HEdPtt5Mqz+i3SvPQ+LY0pqcmMAPfvADCDNUJ908Ux879zdfdXLRBSuLVW1SGlIIXP3Tn+KFvXtN4GiAJOloElrvYepFdDgcR6Sz3mTrj3m3iZk45hG46de/wdYtW0EmLtL6mBeaRRWszlgra2EJKVGd4kkfheC51SDa2zscjoVlcnIS//Tzf5pmVU2zttJP88uiCla2HZxtDoI0fv3rGzE1NQWlFDzfQxzFKJVK03fgcDgWhFKphHvuuQc7n3sOKkmAjMFhWQjRWlTBsqR+K8lZF8bHx3HTTTelWUOFEBBSzjpvmsPhmF8SleD5Pc/j3nvuPWz81XyLVlcIVhYiwh/+8Bg2bdrMwaPS47gQk2TM4XAsPJ7nodGo47777sPExASP8Z3BysI8u5S7TrBarRYeeughHNi/HyBwxkPY/Fhdd7gOR08Qm1nUH3nkETy3fQeEkCDdnutwoVhUBegMPNNa48CBA7jvvnshpIAmDSnZzyUyXa4Oh2NhkaYZuG/fPtx3//2A7SybwcKaTxZVsITJtmDfiQjPPPMMnnnmmc5NHQ7HIhJ4HrSxqH51ww2ZfHU9KFg2nsPzPNx4440Iw7BzU4fDsYhEUQxPSAgBbN26FQ8++CC42WOSZy6Qbi2qYGmt055BAKhWq7j99tsX7OQdDsfRIdOgbm4J/fCHP5w+UzTmOcTdsKiCZYXKzspxww03oNlspnMROhyO7sDzPdMS4rGEG3//e+zevadzs3ln0QUrSZK0WXjNP16T5tpxOBzdAw945s9SCDSbTdx5552dm807CyJY1lLstJs4WZgPAYEtmzZj6+bNKPuBCxB1OLoQnmdBQHoeGo0G7rn77jRPFtOu5TPFZ80FCyJYs5KeE+G+e+8FiBC1QnhdNHGjw+HguipkuzdfehK79+zGs88+C9IKPKV9u0rPVytpUZVBSD6pRr2Ohx9+GEmcmGXzc7IOh+P4SG0Lk4RACIk9e57HE088ASEkYJzyIjOJxXywqIIFCKgkwY4dz2HHjh1IkgSe50HrhU9b4XA4ZkearCk2rzsRoVGv4+mnn0IYtjgeqyP7ynywyILFKVc3bdqE3bt2ISiV0kBSh8PRPQjJlpOtm0ScMevpp5/G2Ni4icmy1tf81d9FFyytNbZs2YJGs5kanjw3jsPh6Bqo3RwEwLNCa41NmzZj//79ZqO2j2u+kvstumDV6zVuB5s87iCk2Q4dDkd3QKD2bOvGniDSGB0dxTPPPA105HqfLytrkQWLMDExgc2bN4NMACmBIMUiH5bD4TgUo0EC1rHOC+6//7fcJJxn/xUWX7CAnTt3pialFSpnYTkc+eF3v/sdtFKQptcfmdErc8387PVoIeD++++HECaSVvJchPMVdOZwOOYWKSX27duHTZs2pfV2Puvv4gqWELjrzrsgBE+DrZTiADXXJHQ4cgFpzll35513Fl+wxsZGsXPXLsCkllGKJ2qkzlHgDoejKyHTY3jHHXek0aXz6cdaVMF66MGHEEcRtFJm0DPgBz60nj+FdhioQC/HgmPHo0ghEEUxnnrySYRhCD1P4QyWhREsk7BemEBRGxX7+9//HgDgSc4P7UlOYeFyt88/9n4U4eVEa/7JPhsEAEGAJEAQQZiVTz/1FKT08m9hZaNj+TPPM//II48gjjm5vchEyToLy+HIB0Qc0aCSBFs2b+5cPecsiGDZ6FchbC+gxvj4GHbs2AHP90Ga1ycmF5acR4V2MO6R4JgrBAQSpfD0AszFsGCCNR2BnTt3Io5jBL4PpRWEyRdtp6V3zD+drqC8vlx5WTykECZDMGHP7t0IW615zWe3IIJl87bbtBNCCDz77LNQSqURs1JK+L6PRPE02I55ptMRlOeXY/EQ4McGAaNjYzhw4MC83pQFESzbJLTRr0SE7dt3IEnidCIKrVUmaHT+TtjhcMwdRDzGEAKYmpzE/v378+9070QphT179iBJbP52PmnuIfStoe84SojAHRUdl43MgNRsQF/aPKf23/YhwVkyOO9R9nvZ73Y27zv/tsy0LYib/FrraS/rw7Tfs7/Nr+m7sKTbdZw3n8XM52C3cGNV5xIBZVpOtVqdh9llsjrMNQty57KKq7VGrVbDxMQ417R0I7tte5Hj6BDCjN0S3PtKRowAZLqZ2yPoiQhCCs7RLbi5TqShtILWygyRMusy1m6naLU7Ufi+ZtdJISGFhFYaSrEwAYD0uOlvX57nscsAfOxSSPieD096Zh/m92cQJSkkp+0F/67WBE2aB9B7Hnzfnzamjc9l/lKf9CJcBtjdMzk1iampKYDmL3h0QQQLGdESQmBiYgITE5OdBoHjRUCkzWu6mICILRgrGEagtGaBItKp51pKHiLFlgvvT2f2OU30jAWjlAbAPcBCWCsNLCIgeL4Hz2NB0qSNgCkkSYIkSVI/JhFvr41wKq14e9Lpc80KsbYjITIzpduKI8BhMVoraCOU2lhw6aD6+alLPQmlrh6BsBXi4MGD8+qHXjDBgn2yC4FGs4Fms9m52nGcsHVxaPPHLtemsmYrLWVeOhUKuy0AKQAh0m0gBOfbF2a5QLpfTfxSWpt98T4IaO9TAEJKEBtS01+CX3bf2d8lgI/NWE7Tj9laVLxQGEG1k35a0faNFUfmy26s6txBWht7l7OSjo+PIYl56r75YMHvHBE/7W0TwfHikUKiVCrD9wNIj5uAtpnmBz5KQcDTqRnLyl57ISWk50F6/O75PjzfT5cJKVkcNItZolQqQEKKdHvP9/l3yiWU+/rQPzCAwaFBDA0PY+nIUixZuhRDw8Oo9FcQlAIIKRGUSgiCAH7Af8N0j1sLi4jDW/h37LF5EJKPK3uMnucBABKVIFFcWYRgiy5JeBmfM0c5ZpuJjheJYIe7vWdxnIConUp5rhE0X1LYgS1ERIRntz6LT15wAR57/HHj5nW8KIitHSF47jjf940g+CACgsBH4Adc+T0PQRDA830EpQCDg4MYHhrG0PAwBgcH0d/fj6GhIfT3V9DfP4DBwQH09w+gr68PS5YMw/d43+VyCaVSmfcdlFJ/kbBW0hFQSQylNOI4QhhGiKMIcRIjiiI0my2EYYh6vY56vY5ms4k4jjExMY5Go4larZa+Go0GpiYmEIYhoiiGNk3MOI7TShRFMZRKoDUhiWPEcdxuVjqOCisS6Z014ZJsubdX/PXHPob/5//9GEqlkt1yTlkQwSJM78kZPTiKT5x/Pu6/7z7u0SHiADQzu6wQnHn0xWD3Sxn/ChmnMP8toRU7mGEEFcYXkpJJ12yXkxmKMG0d2gn4p2/Lf892Jtbfg/QamZ1P+z7B93y2XPr7UalUMDDQj/7+fvT3D2BgoB995T5ePjiAgYFBDA0NYmhwCH2VCpYsGUa53IeBgQFU+isYGhpCpVJBf38//CDIHE2G7AGbcz3kLOx1ypbkQ0r1PNJxOFprhK0WWq0WGo0G6rUams0m6o066rU6avU66rUaqrUqGo0mqtUqWq0mGo0mms0mmo0Gmq0mGnV+r9VYKKMoMqm7uYymp9hxjzsRh5Qp3j69bJ3lbYbyNA1ThaYVTxtj3eHLS78wh5CZl5CLKT8cBUzvtBCptfu3n/0sPnjeeZA+W71zzYIIlgYPfrYnq5TCJV/8En529dWIowikCUol6Cv3IY5iCE8eesOOCN81K45CWgexbQYpbmsbgdJaw5Ne5mbzXGtSCi6gJuWNFTqldFpCsoXMWhS2gLaF1hyP4FImTBR/+2Jzr1YpCFDpr2BkZAQrV6zE0pERjCxbhiVLl2D58uUYGRnB4OAgC06lgnK5jL6+PpTL5WmvUqmEUqkEYYTfNnvS5l/WH2XCSOwlnibS9jxSYT/0Rth19rMlu+1sxWqm73Wumw17LtkmHV/zdmXOnpddb/fLD8T2wysMQ2OZReln+2o2mwjDEI1GA5OTk5icmMTY6CgmJiYwOnoQBw+OYmxsDNVqlXvGDLx/LiqSS0XmXPlvmN5brVX7AZhZl14j3X7g2u/zZ96n7V1V5kFPhDQ1k7V2yfSewjTjj3SND4cUkpvtJgeWJY5jBOUy1q9fh4sv/jucddZZfNzz0PReMMECmbnNTKDZAxs34j9++MOo1Wror1RApkdHCIEoiuAFfuduDoutpALczW0Lt0VKabrx2beRvbnmmQalufeqr68PRIQ4jkHEWSQ888Sw+7WV2qKVhuezc5e7zQV8z4MGYXBoCCeeeCLWr1+P9evX4cQT1+GEE1Zh/fr1WLZsOZYMD8PzPK54RPBLAYTg5putnEJwnJq9RrZHr5NspbRwodWQnockieF5/iHjNe252IowE0pxcO+LKfTzBZkqP23ZDMJqK3Hn9bHLsveUHfU23ksbi4I7N7TpeSUiTFWncODAQezZsxu7d+/B7t27sX/fPuzcuRMHDxzA2NgYwlYIIQV83wcRTXsoetJj313CPkLP47JqT8geqy17thwrzWmZfM9nCwe8TCsT2pEpO8L04NI0AT16hGDrSpteZX7wt1sxRIQ3nnkmvvud72B46VLzpc69vHgWRrBIA+DeGzKCFYUtXHDB3+Bfb74ZSRyDT99cWDMZxbGQLZDCDgOylpbtUjdd3J6JBeJC076q0qRojpOERcEWFFOJfd9HuVRGX6UP5VIZ5XIJfX19KJXLWHfiiRhZtgxr1qzB2rVrsXbNGixfsQJr1qxBuVJJfyPzSO3AVjnzLg63bRtb2SxZsbIVw1aSTqHp/Nsy07bTyKoDpf8d8VinYY/ZfifdzwzNIYM2g+OFlOlPWmuDMueTPX7RIVBW0O26LEc8b2SO27QWiDjmi+8BW+kZYwlQGs1WE1OTU3jhhb3YuWsXDhw4gP379mHvCy9g3759qE5VEUURlErYh9dqsd8uMn44TRyyYa19I57S9n5qQpLwwzXwA0iPr4/WLFx8TiINbRFi9ms8G1yH+BxtaAzB9AyTxtDQEL70xS/hnHe/237h2MrDUbIggmULgrWCbFfonj278Z/+7/+EZ7duNRtyN7gwZvWxIISAUtYHxpHOsJ/JNBMFNwnJPDVh/ua4HY1SqYRKhZtnQ0NDGBlZiiVLlmJkZClGlo5gcGgQy5evwJIlS7Bs2QhGRpalTTbf98wN6jjwzorZXsHbTlvPMVOYwXTP3qbOdZ103lIygmsrGMw+0muT2afWGq1WC3HMDnD7HkURdMIWaBzHUEqZChYjSbhniK8rF2rANo3ssfD+7e94HluInmeDSD1I22EQ8LJSyTZ1A3iej8D3Ue4rs+8te4qZyjHTdbKWibV+eXbxTOU12HKavS6d23Rir6n93iGQ+c/c7unHzSLSaDQwNjaGyckJHDw4isnJSYyNjWJqcgrjExOYmpzE2Pg46vWaWTeOWrWKKI4A2/QUSH+AiMuR53N+OXts2gqfsbSOFUpdrDYFFIeWlPv6cO655+Jzn/sc+vr6Umu+syrMBQsiWFao7NOeK6lAEsd46MEH8dnPfhabNm1CqVRCEsdc2DNt5KPBFkDf56ZkHMdpk8r+vl3GgrMMa09ci1WrVmHdunVYs2YNVqxYieHhIfRX+lHuY0d1f38F5XIf+4ekaD9B0SFG2YqZPfTMsBNrRk8n8720W19Paw4iUxFnqmDZ9VnsOqUU6tUannzqSUxMTGJiYgL1Ojula7U6arUqarU6GvU6wjBEnMRIYhPUaUMDEg4N4Oyw3ETSRFAJhxEQOCbHDtPATPUTfK2E9TUZa8nzOLiUBYzPW0pe5nntaPggCOD7Hnw/QLlUwvCSYQwNDWNgkP17Q0ND5jWMwcEBLF+xAieddBJ8M+mnFSor3ulxZa5hp2jZ99lEqfO+dN6HdHtjkaV/AO14sI7yYlYCIMRRhEajgVarhVYrRLU6hTCM0Gw2cODAQbbU9u7Fvn37sGvXLrzwwguoVquI4zgVaL6eXP9mOoejwX5DmGag0gqe7wMCeO97/09cdNGnsWTJEhZFz4y6mAcWRLAs1hy3PymFBEjjsccex0UXXYSHH3oIlUoFlBGgoyW7X601gsDHqlWrcNJJJ+GUU16KV7ziVGzYsAHr1q3DsmXLUSoFXHlMxWk/obLQ9GWdq4+WzitMme6dmbBlfAaROlrstbYV9b577sH/+B//H/bs2Q0Qx2BZAUIam8QWEv/c9AoojDWQrczpcmsZGmaqFGkxy4gVGaFDtlkrxKFXxSzr9KHZ77C/pt1BQsSV5p3vfBc+/4XPY9myZdOEimYRnyzHcu2PZlvTaD303GYivZQd5e8Q2HIjYlcHn7/G1NQUnn9+L5555hns2rULW7ZswdatW7Fr1y40m81p9/dosFvy17gcEIBKpYI//4u/wPnnfxzLlq+AShJ4Jl2UjY2baxZUsDoh4riYIAiwe+cu/Owf/xG33HIL9u/fj3q9jiRJTCHjihIEpTQ+qFKpoFQqYcmSYYyMjODkk0/G6tVrcNJJJ2H9+vVYu3YtBgYHDn9jDrNqNo71Yh3HT8w9BNx2yy246DMXYd++/ZzSVnDhO1qmFdouhGa4N2/707fhki9/GStXruRtMkX9cOIyV3Qez9FwXEd1pB8idn+oRGH//v3Ys2c39u59ATt27MDOnTtxYP9+TExOoNFomlCPBur1BqIobDfxtQ3i9bFsZARr1q7Fhz70IbzrXe9Cua/vOA/82FlUwUqfeqnfA9i0aRMee+wxPPfcczhw4CCiKEJfXxlLl45gZGQpVq06ASMjI1i1aiWWL1+OJcNL0FfhXj12xvLTnqOnj+IhdYwc68Waw58+PswB/+ZXv8Jn//ZvMXrwoLGmjsfx2t103pv/7aw34ctf/jLWnnjitOW23C0Encd0JObyGmuljQPeWJXGf2wrhrW+lVKYnJzE+DiHbIyNjeHAAX4fGxvF1FQVKo4xMjKC5SuW45WvfCX++HV/jOElS1j4j9F982JYVMGCMfOteS4Ex0DZtnez2QQRwfO8NM5oNqyZn/2cNg8WqHB2HZk7e93Pf46/+7u/w8TEBDzpZXqPjpFFLS1HgTklAvDHr389vvrVr+Lkf/OSaZtky0qRsW4BZCxKpTj6P9tksxKQ9e0J404IwxBRyD2YHKDcByLuoUxdGwt4LRe9Jmedy0mSTHOwDg8PY8mSJRgYGEBgorJn01crTjozCFgcYdyYteuO5dWtHPbYiNBoNLh73PpRDvuFmRG2fHbxK3teYRgijqP0b7I+s+OsYJ1l4Uiv46FzH0fzmg1b9nVm/Kg0HRtWwLLLgbb/0dankuncWLZsOfoHBiCkN+1Xucm4cMxemxcAMnFCqeqbXodOUbIX0X6GudDcnc7b2m06L3jnvoqIPcPDnWmz0YQyvUTM4baegWPcvBsIwxaiKO5cfFzk8PRTC8sKFM0QttEpXp0P++wDP4ljwIQsKBP4ejiDYD5Y2F+bAXvBbEqSbALJTrHJCpAQHDXcroCHbm9vzlyRPsGP5dUNENAKW6nA8zWZu+vSjQgAUchxZNkys+B0lofDveYYe77te87Mdj3kYUcxEIcMGf+n5/uASZ64kCyqYFlBkTZnEXj4jr1onRcvK0Czrcu+joSttkf7Ov4vLRzTio/9fUGoNxqIVcIhCMdTyHhkRte/sscZmjGC2WACO8TmWOm8rUfzOuYvzrDoaF6z0VlXsu/Z+jFbXZlWl9LX9B+e7bvzxaIK1kwc6SY4jh2lFEdFww57Os4nY2dN6cJXVrxim2nBCBWw8BWsUHTBpes6wXLMPVEUmwyvZoaT4xGrHNIKQ8RxDO7WP7Rp5MgfTrB6AJUkCEO2sGziuqOMuc41dgwkhEg7BnulI6aoOMHqAeI4Rhi2uMlEM2SCKyhKJWi1WmxZmgwDzsLKN06weoAojtFqtgDjwzFDlTs3Kxxaa9TrNQ5wzOBEK784wSo8nCspjCLjl+Z/vQAR0Gg004HZrimYf5xgFR7BkzyYiG9NNlNEb9BoNNLEc86yyj9OsHqAOI7SJmGai7snjA1Co1FPQxoc+ccJVg+QJAqtkAUrFaqeMDYEatUae+xcc7AQOMHqAZTisAayg13tbD8FRwiBaq2WpuR25B8nWD1AFMVoNZvp38cV5Z5TarUaj1N1FlYhcIJVAI5kO3AcVghxxAGuxYKI0Gq1OFi0c6UjlzjBKggcstAhXgSANJI4RhSGEGYuO90jTSQhBGq1KsjM2gzny8o9TrAKD09Mm8QJQO1JOHvD5iA0m2xhKa0AFzSae5xg9QDVapUn5ARPVw4TVFl0iNiH1Z7h25F3nGAVHkK9XocQ2YlUe8fKqNfrZubk6RPJOvKJE6yCY62MXvXhNJsNM5s4F3XXJMw3TrAKD09AwcNTbIWlTARpcRFCIAxDE9LhrKsi4ASr4BBxs0iYCtx7lVZgcnKSZ6Ry1lXucYJVcIg0z+/ISbBAPTIJBTLN31q9Bjf4uRg4wSo4WhNq9XqPpgjmZuDExGQvtIB7AidYBUcIoDo1lU560mtIKTE2NtYLBmVP4ASr4BBxHNahNbYXTA4BKQXGx8Z6zLIsLk6wCg+hVjs0TfChAlZAzGw5E5OTnWscOcUJVsEhomlO9yLSGaSR7VIgrVGv1Q7dyJFLnGD1APV6HQBPdUXEs+YUU7qMWBEgCfAED/GenJhgB545d0d+cYJVcJRSaDQa05uEwkw5XnRMz+jk5BSgqXfOu8A4wSo4YRih1Wqlg557CTLBsuPj45k2ojOx8owTrIJTrU5x/qtpvWS9MkyFBz1PTpomYc+cd3FxglVwxsbGzZAcNjkERO/4ccx5jo+PmwWiZ069qDjBKjgcNCpApLmn0Hah9UDNJdNLWp2qpk3B3msYFwsnWAVnbHwMML4cOwMyIHrHp0Uc7V6dmupc48ghTrAKTrVaS/027WyjHFBZdKwka63RbDQ6ljryiBOsgjM+Pj7N0cyJ7Kg3qq1x1xEIU1VuFroROvnGCVbBGR8fN+mBTbYGu6IXKi47sSAgMDU5Zfx3vXDixcUJVsEZSwf+Zrr0bW9hDzE1NdUjKl1snGAVHM62aXxYgp3t1COTfFlrShNxEj83e07ucYJVMLQ2ldIokhWsduBoL8VhcRiHlJwmuafOvaA4wSosXDOnptoWltbG6Sza64uOFeparZZGuzvyixOsAkHEQ1GyTExwLigOZeAp6qWZ8qrwGLEiItRML6HzY+WbHim5vUHnODmtElSrVfZdCQGBzBT1PWFo2HgzwU53l60h9zjBKghsQWVVSKDZbCGKIkgpIcCiRcSS1SN6BYCbwVNT1c61jhziBKtAWH8NGWdzrVaF1gowPWVCSpO5oUfCkTLXY6o61SsyXWicYBUQIs6s2Wg02j4bY33Zdb0EEfHQnHQspSOvOMEqCNZPZT8D3AziKHcy4wiNU74XrCuwSNuOiHq9AWWsTUd+cYJVQKxg8fRePYzgiH6tCXESIwzDzi0cOcMJVlERdjhKD5O2fgkqUWg0mp1bOHKGE6wCMc3pTmY+wh6HOxgElFZoNjsm43DkDidYBaZa7XELC2aQNwEqSdBstjpXO3KGE6yCYGOwyI4bFAK1qrOwIAQ0EeIkQRiGzsDKOU6wCoJtDtrBz1opVGu97XQnAEQaniehlUK9Xu+VPBWFxQlWwbDCJYVErVbvXN1TpNEbxBPKRlHYMxEdRcUJVkGwTcL28BviKdp7GdsJASBRtpfQSVaecYJVMLLjCWv13rawbOCoEAJaazTq9d4YklRgnGAVCFs5bQUNW65XDACkENBKo95o9MggyuLiBKsgZJuEABCGoYvsFhzSoEkjUQlaLRc4mnecYBUEK1Qw4tVqtZAoN3aOzPjJbBxWttnsyBdOsApCdvAzjIWlVDJtm17EXhOlFFucTqtyjROsgmGth2azhTjuccHKONyV1mi1WtBaTRN2R75wglUwbGVsNhtQPd4k7DSmms0GkqTHRTznOMEqIEIINBrNnhcsYSxOKSWkEGi1QkRx3LmZI0c4wSogRIRms9nz1oQNorXvYdhCHEWdmzlyhBOsgpBt/hARojCEVgrCxnbTDG2kgiNMWAMR57SPorjnRTzvOMEqCDwYx8RiERA2m9BKQRL/3YtuZk0a0uOQBk9KRFGI2DUJc40TrALQNpzastQKQ8RRj1dOc2GElIDxYTnByjdOsApDW6yEEM6HZSEOeBcAWi0X6pF3nGAVjDQOy/USsrMdgFYaBCCKQiSJs7DyjBOsgmDtKxYscnFYKcavl1pYTrDyjBOsgkFag4h9WEmPD82xvj3pZXxYSeLGEuYYJ1gFQ0iJJEnQbDTgSa9zdc8hhIBSClrptJfQDc3JL06wCoK1GQSARCUIo6g3YxlmwM52HbZCJK5JmGucYBUNIRDHMVoueR9Hp5Gd6os4R5iLdM81TrAKQmpMESGJE7RaLeerMVdFE/cSapMnzJFfnGAVjYyF1euClW0R2zGFtWq1569LnnGCVRCm+bAStrB6HStMUraL+dSUE6w84wSrYGgiJEmCsNXq3d4wHvMMAk9AQcTzNAqAZ85xepVbnGAVBCtNWmu2sMKQnc09gOho/rUXCggpoLWClMbx3mgCZnZsR/5wglUQ0kwNQiBJXC9hJ2TmKKw3GtCuSZhbnGAVhKw15ZzuFpqWA0wIgWp16lBrzJEbnGAVkNiFNaSklqf5V52qdm7iyBFOsApCVppc4OjMEAjVWm3atXLkCydYhaHtw1JKIXJDc6ahjQ8rdJZnrnGCVSgIWik0Wy4XFox4E3EcFmkNKSWqtSpIO8HKK06wCoaUEvVajWdecPXSWJ48KzYRoVqtpn4tR/5wglUYOBpJSImpqSrHIPVq4KjBtvyEEXIhBOq1umsp5xgnWAXBVkIyWQmmLXQAxsJqhaGzr3KME6yCYCshaQ3f9zlQssd9NULYvO4EIg0igudJ53TPMU6wCkB2aIr0PFT6K+xodrYEu/KI/VhSeujv7582GNqRL9ydKwjENRNEhBUrV0JpDQgBLQAyg4F7DSKCkIKvA2lo0lg6MsKmlyOXOMEqAFashBDQWmN4eBgDgwO8zjYXZxwhXHCEgNKaxw6ayQnXrF3b850RecYJVgEQmR5BIQQGBwdx4oknOkvCijkIUkpoTdiwYUPvCXeBcIJVEMg0B4UQWLp0KdavP8k5l42AcxwWhzaceuqp8D03m1BecYJVMIgIIyMjOOWUU+D7vV0xrYADBK0JK1euwCmn/BtAuGKfV9ydKwg2MNLzPPi+j9e85tVYMrykc7Oeg5vLHMpw2mn/FieddHLnJo4c4QSrQGiTSVMIgde97nVYvWZNGnckIEDaWhzomRgtrTV830MQ+Dj99NOxfPmyzk0cOcIJVkGwzR+tNYQQWLNmDc4++2wkZmp2djrr1NoQsvieZwEBKQXiKMaKFStx1llnwfcDkEuRnFucYBWEtr/GIvCXf/mXGB4eRrlcRpwk8AMfcRz1THyD0gpKaXi+jzPOeAPe8IY3QCUJhAsczS3uzhUEKY3lZJt8RFi5aiU++cn/xhaW4EhvEOAZa6vo+L4PKSUGBwbwiU9cACKC5/s2Ms2RQ5xgFYRsWAO/s5/qfe97H9545pkgAEolkJ4HMnFJRUdrjSAIcMHfXIATTzwxvTZOr/JL8UttD0Am3spaWRbbpf9fP/IRnHLKKfA8H6R5EHAvhGgJIfDOd7wDf/EX/1eHBdoDJ19QnGAVAO6656ZgHMep8x0Ayn0VvOGMM/D+D7wffuDDC3xOaXc4N5Ydz7NYr+OgcxcEYMOGDfgvH/kvGOjvhzBhHwBcHFaOcXeuYJRKJQCctQGSx88JT+Iv/8N/wHveey78UgAFgiKC53kgzUGVAKASZeaWaQ89XOjX4SDiY7UCba1JpbWZMFVDSAmlNVavXo3zP/EJbDjt3wK2+St4ILQjvzjBKjjWtxWUAlz4qU/h/R/4AAYGBqC0QpwkCEoBhPH3eJ4HrfXxGjlzwuHkRAgBz5NQinv/bDOPhUyDwO/r1q3DhZ/6FM4+++zOXThyjqCs08NROKIoQhAEqf+mVqvhxz/+Mb7/3e+hXqshCkP09w8gSWIOLDXxWWKRSgVhdtUiTYAAhJCQ1sIy6XOsgJ166qn49Kc/jTe96U2zhy/Msn9H9+MEq0dQSiFJEpTLZURRhF/8/Be47NJLMTo6Cq01SkEArVS793AxS8URBEUrzm3Fw5EkNDQIAq957WvwxS9+EaeddhpvZ6xGR3FwglVwiAjKCJGNdpdSQicKDz/8ML71rW/hD394FOPjE2kWAyI6kmbMK7MVSDI+KgH2R0khQABWr12Ds9/+dnzkIx/BqlWrACPQvu937sKRc5xgFRzr37H+nrQim/GFY2NjuOWWW3DjjTdi48aNSJIYyDjeFxrbwzcTQgBJohAEAeI4xgmrVuFP//2/xzve+Q68+S1vAUxohx2exN9ZjLNwzBdOsHoA67+yt1qY2aE9KQEIxHGEiYkJ3Hvvvfj1jb/GPffcgziKICU7uNlXxBbNjAiBuQzsIiuWQpjJI2znHp/D2jVr8Gfv+DO8+93/B17+8pdhYGgoPb/su6N4OMHqcbTWqdUlhEAcRdj3wj7ccMMNuO22W/HcczuN1QVEUQwgG3Q690VHm9l+2D8lIKRAEASoVCr4kz/5E7zjz96BM888k3OzW5w29QxOsHqUrLWV/dv6iThHvMTU5CR27dqJ3bt3Y3R0zGxnRWvui45tEkopMTAwgJUrV2L9+vVYvXo1yqVSau11WoyO3sAJVo9iKz5MVgMp2Jmd9qyZdhlpDdhNZwsTmENmK44ziRLZ8ZPHcVyH7s2RB5xg9SjGTuLEfsZiIq0hOya0SDfGwtVyK0SdA7Q7Ow9ss/F4oteP/RuObsAJVo9CAM/VpzV8z4wvNOuylTmO4zQkYiYrZ76x4gXTTOxcp7SC9DzTr3n0HNvWjm7BCVaP0nnTrbXFfxzqG6IF7Hk73G/ZdbbYChOLdazMvHdHt+MEy+Fw5IZj91Y6HA7HIuEEy+Fw5AYnWA6HIzf8/5Cxx9Svh4O5AAAAAElFTkSuQmCC;" vertex="1" parent="1">
          <mxGeometry x="10.000000000000002" y="130" width="34.08" height="30" as="geometry" />
        </mxCell>
        <mxCell id="gpXHtfz_gADmp17LL22E-31" value="= gomba (1db)" style="text;html=1;align=center;verticalAlign=middle;whiteSpace=wrap;rounded=0;" vertex="1" parent="1">
          <mxGeometry x="43.08" y="130" width="92" height="30" as="geometry" />
        </mxCell>
        <mxCell id="gpXHtfz_gADmp17LL22E-32" value="" style="whiteSpace=wrap;html=1;shape=mxgraph.basic.pentagon;fillColor=#FF8000;strokeColor=#FF8000;" vertex="1" parent="1">
          <mxGeometry x="22.040000000000035" y="180" width="10" height="10" as="geometry" />
        </mxCell>
        <mxCell id="gpXHtfz_gADmp17LL22E-33" value="= BoosterSpore (2db)" style="text;html=1;align=center;verticalAlign=middle;whiteSpace=wrap;rounded=0;" vertex="1" parent="1">
          <mxGeometry x="39.019999999999996" y="171" width="124" height="30" as="geometry" />
        </mxCell>
      </root>
    </mxGraphModel>
  </diagram>
</mxfile>
